<svg xmlns="http://www.w3.org/2000/svg" viewBox="0 0 122.66 122.81"><defs><style>.cls-1{fill:#fff;}</style></defs><title>Asset 2</title><g id="Layer_2" data-name="Layer 2"><g id="Layer_1-2" data-name="Layer 1"><path class="cls-1" d="M60.26,122.8C25.42,122.07-.54,95.21,0,60.45.57,24.76,27.66-.67,64.37,0c33.82.64,59,28.38,58.27,64.17C122,97.62,94.4,123.5,60.26,122.8Zm35.1-61h0c0-5.84.12-11.68,0-17.51-.23-9.77-7.12-16.91-16.73-17q-17.51-.26-35,.09c-9.8.19-16.7,6.91-17,16.82-.32,11.92-.34,23.86,0,35.78C27,89.64,33.55,96.2,43.11,96.44q17.88.45,35.78,0c9.77-.23,16-6.55,16.42-16.36C95.58,74,95.36,67.9,95.36,61.81Z"/><path class="cls-1" d="M78.69,58.39h8.84c0,7.45.3,14.76-.1,22-.29,5.3-3.76,8.26-9.09,8.33-11.43.14-22.87.17-34.3,0-5.69-.08-9.16-3.51-9.54-9-.49-7-.12-14.08-.12-21.44h7.79c3.17,6.79,5.09,13.34,9,18.31,2.17,2.77,7.66,4,11.68,4.06C72.34,80.8,77.49,73.12,78.69,58.39Z"/><path class="cls-1" d="M84,37.41l4.76,11c-2.43.74-3.16,1.2-3.84,1.14-16.61-1.48-33.21-2.24-49.59,1.29-1.87-11.44,1.27-15.7,10.58-15.83,10.14-.14,20.28-.18,30.42,0,2.34,0,4.66,1.22,7,1.88-10.13-.29-10.4,0-8.73,9.92C84.93,48.4,85.55,47.78,84,37.41Z"/><path class="cls-1" d="M61.32,55.2c2.78,4.27,5.39,6.53,5.32,8.69-.07,1.87-3.17,3.65-4.93,5.46-1.83-1.92-4.67-3.61-5.17-5.83C56.15,61.83,58.72,59.46,61.32,55.2Z"/></g></g></svg>