<svg xmlns="http://www.w3.org/2000/svg" viewBox="0 0 57.42 57.42"><defs><style>.cls-1{fill:#fff;}.cls-2{fill:#16593c;}</style></defs><title>Asset 5</title><g id="Layer_2" data-name="Layer 2"><g id="Layer_1-2" data-name="Layer 1"><path class="cls-1" d="M57.42,28.71A28.71,28.71,0,1,1,28.71,0,28.72,28.72,0,0,1,57.42,28.71Z"/><path class="cls-2" d="M36.05,11.94H21.37a3.14,3.14,0,0,0-3.14,3.13V42.34a3.15,3.15,0,0,0,3.14,3.14H36.05a3.15,3.15,0,0,0,3.14-3.14V15.07A3.14,3.14,0,0,0,36.05,11.94ZM26.62,14h4.19v1H26.62Zm2.09,29.35a1.57,1.57,0,1,1,1.57-1.56A1.57,1.57,0,0,1,28.71,43.38Zm8.39-7.33A2.1,2.1,0,0,1,35,38.14H22.43a2.09,2.09,0,0,1-2.1-2.09V19.27a2.09,2.09,0,0,1,2.1-2.09H35a2.1,2.1,0,0,1,2.1,2.09Z"/></g></g></svg>