<svg xmlns="http://www.w3.org/2000/svg" xmlns:xlink="http://www.w3.org/1999/xlink" viewBox="0 0 2695.44 1327.97"><defs><style>.cls-1{fill:#070707;}.cls-2{fill:#233862;}.cls-3{fill:#01644c;}.cls-4{fill:#002822;}.cls-5{fill:#f5c99d;}.cls-6{fill:#d8a982;}.cls-7{fill:#847d3d;}.cls-8{fill:#fff;}.cls-9{fill:url(#Безымянный_градиент_13);}.cls-10{fill:url(#Безымянный_градиент_18);}.cls-11{fill:url(#Безымянный_градиент_18-2);}.cls-12{fill:#ebf3fa;}.cls-13{fill:#4ac195;}.cls-14{fill:#fd9c28;}.cls-15{fill:#e65924;}.cls-16{fill:url(#Безымянный_градиент_13-2);}.cls-17{fill:url(#Безымянный_градиент_18-3);}.cls-18{fill:url(#Безымянный_градиент_18-4);}.cls-19{fill:url(#Безымянный_градиент_13-3);}.cls-20{fill:url(#Безымянный_градиент_18-5);}.cls-21{fill:url(#Безымянный_градиент_18-6);}.cls-22{fill:url(#Безымянный_градиент_6);}.cls-23{fill:url(#Безымянный_градиент_8);}.cls-24{fill:#bda24d;}.cls-25{fill:url(#Безымянный_градиент_16);}.cls-26{fill:url(#Безымянный_градиент_8-2);}.cls-27{fill:#45391d;}.cls-28{fill:url(#Безымянный_градиент_8-3);}.cls-29{fill:url(#Безымянный_градиент_8-4);}.cls-30{fill:url(#Безымянный_градиент_8-5);}.cls-31{fill:url(#Безымянный_градиент_8-6);}.cls-32{fill:#067254;}.cls-33{fill:#01483f;}.cls-34{fill:#97c157;}.cls-35{fill:#679b40;}.cls-36{fill:#749a77;}.cls-37{fill:#0b0904;}.cls-38{fill:#969593;}.cls-39{fill:#058675;}.cls-40{fill:#17865c;}</style><linearGradient id="Безымянный_градиент_13" x1="1754.76" y1="155.28" x2="2252.48" y2="155.28" gradientUnits="userSpaceOnUse"><stop offset="0" stop-color="#3e815b"/><stop offset="1" stop-color="#277455"/></linearGradient><linearGradient id="Безымянный_градиент_18" x1="1778.92" y1="154.83" x2="2222.2" y2="154.83" gradientUnits="userSpaceOnUse"><stop offset="0" stop-color="#214a35"/><stop offset="1" stop-color="#022b1d"/></linearGradient><linearGradient id="Безымянный_градиент_18-2" x1="1948.9" y1="154.83" x2="2052.22" y2="154.83" xlink:href="#Безымянный_градиент_18"/><linearGradient id="Безымянный_градиент_13-2" x1="909.44" y1="699.43" x2="1327.06" y2="699.43" xlink:href="#Безымянный_градиент_13"/><linearGradient id="Безымянный_градиент_18-3" x1="944.84" y1="696.25" x2="1289.47" y2="696.25" xlink:href="#Безымянный_градиент_18"/><linearGradient id="Безымянный_градиент_18-4" x1="1061.6" y1="696.25" x2="1172.7" y2="696.25" xlink:href="#Безымянный_градиент_18"/><linearGradient id="Безымянный_градиент_13-3" x1="674.66" y1="934.36" x2="1225.75" y2="934.36" xlink:href="#Безымянный_градиент_13"/><linearGradient id="Безымянный_градиент_18-5" x1="711.82" y1="931.98" x2="1183.84" y2="931.98" xlink:href="#Безымянный_градиент_18"/><linearGradient id="Безымянный_градиент_18-6" x1="891.6" y1="931.99" x2="1004.05" y2="931.99" xlink:href="#Безымянный_градиент_18"/><linearGradient id="Безымянный_градиент_6" x1="1240.18" y1="956.59" x2="1593.29" y2="956.59" gradientUnits="userSpaceOnUse"><stop offset="0" stop-color="#cbce55"/><stop offset="1" stop-color="#217b4f"/></linearGradient><linearGradient id="Безымянный_градиент_8" x1="1342.95" y1="269.48" x2="1274.59" y2="387.89" gradientTransform="translate(-9.09 618.8) rotate(-26.51)" gradientUnits="userSpaceOnUse"><stop offset="0" stop-color="#c8a34e"/><stop offset="1" stop-color="#5b9a3e"/></linearGradient><linearGradient id="Безымянный_градиент_16" x1="1559.26" y1="1258.35" x2="1691.47" y2="1258.35" gradientUnits="userSpaceOnUse"><stop offset="0" stop-color="#ceefe5"/><stop offset="1" stop-color="#27c888"/></linearGradient><linearGradient id="Безымянный_градиент_8-2" x1="848.38" y1="1137.7" x2="1079.94" y2="1137.7" gradientTransform="matrix(1, 0, 0, 1, 0, 0)" xlink:href="#Безымянный_градиент_8"/><linearGradient id="Безымянный_градиент_8-3" x1="887.55" y1="1137.7" x2="1040.78" y2="1137.7" gradientTransform="translate(1879.12 -39.94) rotate(78.13)" xlink:href="#Безымянный_градиент_8"/><linearGradient id="Безымянный_градиент_8-4" x1="809.98" y1="1312.55" x2="1040.3" y2="1312.55" gradientTransform="matrix(1, 0, 0, 1, 0, 0)" xlink:href="#Безымянный_градиент_8"/><linearGradient id="Безымянный_градиент_8-5" x1="830.51" y1="1288.92" x2="1060.82" y2="1288.92" gradientTransform="matrix(1, 0, 0, 1, 0, 0)" xlink:href="#Безымянный_градиент_8"/><linearGradient id="Безымянный_градиент_8-6" x1="813.65" y1="1265.29" x2="1043.97" y2="1265.29" gradientTransform="matrix(1, 0, 0, 1, 0, 0)" xlink:href="#Безымянный_градиент_8"/></defs><title>Asset 10</title><g id="Layer_2" data-name="Layer 2"><g id="Слой_1" data-name="Слой 1"><polygon class="cls-1" points="2689.46 1322.92 0 1322.92 5.97 1325.68 2695.44 1325.68 2689.46 1322.92"/><path class="cls-1" d="M1973.41,348.61s10.26,16.9-9,27.55c0,0,14.83,5.34,20,3.33a11,11,0,0,1-2.25,1.81s13.93,4.43,20.88,2,21.9-69.88-19.23-73.44c0,0-32.44-11.61-39.3,24.59s-19.35,32.69-19.35,32.69,3,2.56,4.7,3c0,0,2.7-.18,3.53-1.29a7.9,7.9,0,0,1-1.84,2.28s13.16,5,21.21,2.17S1973.28,356.44,1973.41,348.61Z"/><path class="cls-2" d="M1932.12,881.23h52.47s1.26-8-1.48-14.07c-2.63-5.82-6.71-9.41-7.09-13.87-3.33,3.43-7.43,5.64-15,4.62-.93,1.5-6,9.57-9.1,11.8C1948.47,872.17,1933.18,871.29,1932.12,881.23Z"/><path class="cls-3" d="M1975.48,861.18a47.88,47.88,0,0,1-9.15,1.87c-8.27.73-9.47-1.72-9.47-1.72s-8.21-73.12-34.8-212.87c-3.83-20.18-5.35-31.36-6.73-49.3-.42-5.37-.82-11.34-1.27-18.35-1.2-18.84,1.66-50.54,15.79-58.87,6.43-3.79,15.18-2.75,27,6.52.92.73,1.87,1.51,2.84,2.35,34.45,29.8,20.32,115.38,21.72,155.62.23,6.67.89,12.09,2.26,15.81,1.78,4.81,5.6,11.47,6.46,17.75C1997.32,772.17,1975.48,861.18,1975.48,861.18Z"/><path class="cls-2" d="M1976.8,881.23h52.47s1.26-8-1.48-14.07c-2.62-5.82-6.71-9.41-7.08-13.87-3.34,3.43-7.44,5.64-15,4.62-.93,1.5-6,9.57-9.1,11.8C1993.15,872.17,1977.86,871.29,1976.8,881.23Z"/><path class="cls-4" d="M2020.16,861.18a47.88,47.88,0,0,1-9.15,1.87c-8.26.73-9.47-1.72-9.47-1.72s-8.21-73.12-34.8-212.87a390.09,390.09,0,0,1-6.73-49.3c-.42-5.37-.82-11.34-1.26-18.35-1.21-18.84,1.65-50.54,15.79-58.87,6.42-3.79,15.18-2.75,27,6.52.92.73,1.88,1.51,2.84,2.35,34.45,29.8,20.33,115.38,21.72,155.62.23,6.67.89,12.09,2.27,15.81,1.77,4.81,5.59,11.47,6.46,17.75C2042,772.17,2020.16,861.18,2020.16,861.18Z"/><path class="cls-5" d="M1870.34,274.71s1.26-6.3,2.68-11.11c.64-2.13-3.76-16.12-6.8-17.84s-11,7.69-8.71,14.93c1.15,3.71,3,15.8,3,15.8Z"/><path class="cls-5" d="M2088.63,293c.33.67,1,3.53,1.38,4.65,0-.31,8.08-14,11.49-14.72s8.22,10.56,4,16.82c-2.18,3.22-9.68,13.12-9.68,13.12l-8-3.32s.76-4.12-.49-5.12-1-10.66-1.39-13.25C2085.94,291.18,2087.45,290.55,2088.63,293Z"/><path class="cls-5" d="M1948.47,391.88c-.11,0,9.45,7,17.56,6,7.62-.9,13.82-9.69,13.73-9.73-3-1.08-3.28-5.48-.48-23.8l-1.45.07-24.29,1.16s-.56,7.51-1.59,14.51C1951.09,385.94,1949.91,391.46,1948.47,391.88Z"/><path class="cls-6" d="M1953.54,365.56s-.56,7.51-1.59,14.51c13.26,1.59,22-9.42,25.88-15.67Z"/><path class="cls-1" d="M1980.65,362.2s8.55-9.91,11.6-19c2.17-6.49,2.46-31.74-22.93-31.87a34.22,34.22,0,0,0-14.8,3.21c-5.94,2.84-14.9,9.55-9.4,32.43l1.18,7.63Z"/><path class="cls-5" d="M1918,536.59s23.82,15,63.5,5.37c.47-.11,22.56-3.64,22.56-3.64-.55-1.51-23.77-39.87-24.31-41.26-7-18.17,9.26-104.9-1.49-109.77-2.74,3-10.59,5-17.3,4.44-7.74-.68-10.32-4-9.68-7.61-8.56,4-15.13,7.8-15.13,7.8C1928.34,403.64,1918,536.59,1918,536.59Z"/><path class="cls-5" d="M1948.15,371.53s31.16,5.16,34.07-14.29,8.91-31.89-10.87-36-24.75,2.73-27.31,9S1940.12,369.69,1948.15,371.53Z"/><path class="cls-1" d="M1957.2,318.64s5.16,24.1,17.78,29.43,18.84,2.65,18.84,2.65a37.54,37.54,0,0,1-8.89-23.76S1965.27,308.73,1957.2,318.64Z"/><path class="cls-1" d="M1959,320.81s-7.14,4.14-9.44,8.87-4.51,14.82-7.43,14c0,0-4.13-16.48,4.41-24.18C1955.65,311.37,1959,320.81,1959,320.81Z"/><path class="cls-7" d="M2095.91,314s-20.1,61.07-25.44,70.52c-3.23,5.7-39.42,28.23-60.43,43.09a3.54,3.54,0,0,0-.81,1l0,0c-5.25,8.11-21.54,58.3-17.65,67.31,16.38,37.86,29,51.44,33.14,62.06,2,5.29,4.77,10.92-.58,12.82-6.74,2.4-23.54,6.79-35.24,8.8q-3.36.58-6.88,1c-32.29,4.1-54.16-3.48-65.26-9.08a14.78,14.78,0,0,1-8.09-14c.67-12,6.66-23.83,9.36-52.64,2-21.86-16.81-55.12-16-66.75.32-4.6,3.94-10.11,5.89-13.67v0c3.47-6.31,5.37-12,3.06-15.18-15.36-21.1-48.54-50.18-49.9-57.44-2-10.67-1.09-76.63-1.09-76.63a20.24,20.24,0,0,1,5.57-1.72,17.58,17.58,0,0,1,4.9.51s8.79,54.65,9.44,57.55,37.71,44.63,47.7,44.46c9-.15,21.74,6.82,23.72,8.16a95.78,95.78,0,0,0-10.12,33.73c-1.41,13.55,7.65,7.53,13.33-1.76,7.7-12.56,23.2-30.46,23.2-30.46s12.61-3.28,22,.13,58-24,59.56-26.57,27.59-51,27.59-51,2.16-1.25,5.62.55A6.34,6.34,0,0,1,2095.91,314Z"/><path class="cls-8" d="M1957.2,361s-1.33,2.69-3.13,2.74-6.34-.39-6.65-.85a26.3,26.3,0,0,1-1.07-3.28S1953.88,359.28,1957.2,361Z"/><polygon class="cls-9" points="2252.48 67.54 2219.09 310.55 1892.41 263.03 1892.4 263.02 1754.76 243 1788.15 0 2045.16 37.38 2252.48 67.54"/><path class="cls-10" d="M2222.2,90.85l-25.93,188.66L1778.92,218.8l25.93-188.66Zm-28.54,164.67,19.55-142.28a17.91,17.91,0,0,0-15.23-20L1827.81,39.34a17.89,17.89,0,0,0-20.4,15.19l-19.47,141.71a18.07,18.07,0,0,0,15.37,20.24l370.41,53.89A17.48,17.48,0,0,0,2193.66,255.52Z"/><path class="cls-11" d="M1993.59,205.59c-28.27-4.12-48.06-30.17-44.21-58.21a51,51,0,0,1,58.16-43.31c28.26,4.11,48.05,30.17,44.2,58.2A51,51,0,0,1,1993.59,205.59Z"/><circle class="cls-1" cx="1922.65" cy="944.62" r="379.39" transform="translate(-104.81 1636.19) rotate(-45)"/><path class="cls-12" d="M2278.19,1013.8c-38.21,196.36-228.35,324.57-424.72,286.36s-324.56-228.36-286.35-424.72A362.41,362.41,0,0,1,2120,640.79C2240.13,718.87,2307.24,864.53,2278.19,1013.8Z"/><path class="cls-8" d="M2264.18,1011.07c-36.7,188.62-219.36,311.77-408,275.07l-.71-.14-1-.2a346.75,346.75,0,0,1-123.28-50.54l-.06,0A348.14,348.14,0,0,1,1856.11,603l.11,0a346.62,346.62,0,0,1,132.89.1l.1,0a346.83,346.83,0,0,1,123.14,49.72c.17.11.35.22.52.35a348.28,348.28,0,0,1,151.31,357.88Z"/><path class="cls-13" d="M1949.43,1083.68l.62-.54,40.2-37.85,128.19,186.94c-38.85,26.63-83.88,45.13-130.87,54.3l-.34-1Z"/><path class="cls-14" d="M2112.87,653.19c-25.81,41.42-68.78,110.09-107.34,170.49-45.45,71.14-84.8,130.8-82.88,120.94l66.46-341.52.1,0a346.83,346.83,0,0,1,123.14,49.72C2112.52,653,2112.7,653.06,2112.87,653.19Z"/><path class="cls-14" d="M1894.29,805.24l-.62.54-40.73,35.45L1726.05,657.58A347.91,347.91,0,0,1,1856.11,603l.11,0Z"/><path class="cls-14" d="M1921.06,944.31s-63.45,325.78-66.55,341.49a346.75,346.75,0,0,1-123.28-50.54l-.06,0c25.85-41.47,68.61-109.82,107-170C1883.63,994.11,1923,934.44,1921.06,944.31Z"/><path class="cls-14" d="M1920,945s-325.78-63.46-341.49-66.55A346.87,346.87,0,0,1,1629,755.18s0,0,0-.06c41.47,25.85,109.82,68.61,170,107C1870.15,907.59,1929.81,946.94,1920,945Z"/><path class="cls-14" d="M1780.57,973.38l.54.62,36.13,43.07-182.31,123.16c-26.63-38.86-47.41-81.68-56.58-128.67l0-.11Z"/><path class="cls-14" d="M1926.13,945.44s325.78,63.46,341.49,66.55a346.87,346.87,0,0,1-50.54,123.29l0,.06c-41.47-25.85-109.82-68.61-170-107C1975.93,982.87,1916.27,943.52,1926.13,945.44Z"/><path class="cls-14" d="M2065.51,917.08l-.54-.62-39.58-45,185.76-121.25c26.63,38.86,47.42,81.68,56.58,128.67l0,.11Z"/><path class="cls-3" d="M2211.27,750.31,2029.13,870.12l-23.6-46.44-1.24-2.42,108.06-168.42c.17.11.35.22.52.35A348.25,348.25,0,0,1,2211.27,750.31Z"/><path class="cls-3" d="M1949.15,808.43l-53.62,7.4-1.86-10.05L1856.11,603l.11,0a346.62,346.62,0,0,1,132.89.1l.1,0C1975.43,674.73,1949.88,807.13,1949.15,808.43Z"/><path class="cls-3" d="M1839.42,1067.67s-97.58,151.5-108.19,167.59l-.06,0a348.16,348.16,0,0,1-97.75-97.24l181.17-119.17,23.6,46.44Z"/><path class="cls-3" d="M1987.57,1286.53h0c-42.38,8.26-87.09,8.11-132.08-.53l-1-.2c13.38-69.55,37.87-196.44,39.93-204.86l0-.14a2,2,0,0,1,.09-.3l53.62-7.4,1.87,10Z"/><path class="cls-3" d="M1796.59,863.38s-151.5-97.59-167.59-108.2c0,0,0,0,0-.06a348.39,348.39,0,0,1,97.23-97.75L1847.9,833.2,1799,862.15Z"/><path class="cls-3" d="M1578.35,1011.56l0-.11a346.79,346.79,0,0,1-.07-132c.06-.33.13-.66.2-1,69.55,13.37,196.44,37.86,204.86,39.92l.14,0,.3.1,7.4,53.62L1781.11,974Z"/><path class="cls-15" d="M2049.49,1027.08s151.5,97.59,167.59,108.2l0,.06c-25.75,39-60.32,71.31-98.6,96.89l-120.26-175,48.89-29Z"/><path class="cls-3" d="M2267.73,878.9l0,.11a346.79,346.79,0,0,1,.07,132c-.06.33-.13.66-.2,1-69.55-13.37-196.44-37.86-204.86-39.92l-.14,0-.3-.1-7.4-53.62,10-1.86Z"/><circle class="cls-15" cx="1922.48" cy="945.51" r="167.4" transform="translate(-105.5 1636.33) rotate(-45)"/><path class="cls-8" d="M2069,973.1c-.1.56-.22,1.13-.35,1.68a148.45,148.45,0,0,1-61,92.32c-1.06.75-2.14,1.48-3.23,2.19a148.52,148.52,0,0,1-108.34,22c-.64-.1-1.28-.23-1.91-.35s-1.28-.25-1.91-.4a148.47,148.47,0,0,1-91.61-60.23q-1.11-1.57-2.19-3.21a148.43,148.43,0,0,1-22.64-108.43c.14-.86.3-1.72.46-2.57.09-.42.17-.84.26-1.26a148.51,148.51,0,0,1,60.87-92.6c1.07-.75,2.14-1.48,3.23-2.18A148.53,148.53,0,0,1,1949,797.86c.71.12,1.44.26,2.15.4.55.1,1.11.21,1.65.34a148.44,148.44,0,0,1,91,59.12c.76,1,1.49,2.11,2.22,3.18A148.56,148.56,0,0,1,2069.4,971C2069.29,971.67,2069.15,972.38,2069,973.1Z"/><path class="cls-15" d="M1875.66,1186.11c-132.92-25.86-220-155-194.16-288s155-220,288-194.17,220,155,194.16,288S2008.59,1212,1875.66,1186.11Zm92.09-473.23c-128-24.91-252.43,59-277.34,187s59,252.42,187,277.33,252.42-59,277.33-187S2095.76,737.79,1967.75,712.88Z"/><path class="cls-15" d="M1925.74,938.92l-29.65,152.41c-.64-.1-1.28-.23-1.91-.35s-1.28-.25-1.91-.4l27.83-143-119.44,82.79q-1.11-1.57-2.19-3.21l119.47-82.82,2.31-1.58.7-.5,1.54-1.07.93-.64,1.64-1.14Z"/><path class="cls-15" d="M2068.66,974.78l-141.51-28.7,80.51,121c-1.06.75-2.14,1.48-3.23,2.19l-80.5-121-1.52-2.3-.64-1h0l-.45-.68-.15-.24-.91-1.35-1.56-2.34,2.35.47,1.45.3,1.59.32,1.12.23,2.59.53h0L2069.4,971c-.11.7-.25,1.41-.39,2.13C2068.91,973.66,2068.79,974.23,2068.66,974.78Z"/><path class="cls-15" d="M2046,860.9,1927.8,942.25h0l-2.17,1.49-.94.65-1.31.91-1,.66-.64-1h0l-.45-.68-.15-.24a4.15,4.15,0,0,1-.21-1.85c0-.38,0-.82.09-1.37.08-.84.19-1.9.37-3.26,1.17-8.48,4.79-28.46,14.61-76.9,4.8-23.72,9.74-47.47,13-62.85.71.12,1.44.26,2.15.4.55.1,1.11.21,1.65.34-11.47,54.83-25.56,124.29-27.72,140.79v0l.69-.48,118.08-81.22C2044.58,858.76,2045.31,859.83,2046,860.9Z"/><path class="cls-15" d="M1927.17,946l-2.71-.49-1.09-.2-1.6-.29h0l-3.82-.69-142.11-25.61c.14-.86.3-1.72.46-2.57.09-.42.17-.84.26-1.26l142.12,25.62-81.25-118.22c1.07-.75,2.14-1.48,3.23-2.18l80.76,117.51,2,2.92.66,1,.91,1.32.63.93Z"/><path class="cls-1" d="M1900,938.89a23.34,23.34,0,1,1,18.45,27.37A23.34,23.34,0,0,1,1900,938.89Z"/><rect class="cls-1" x="1843.25" y="939.87" width="159.06" height="7.07" transform="matrix(0.98, 0.19, -0.19, 0.98, 215.58, -349.87)"/><path class="cls-1" d="M1857.84,930.69c-.82,4.21-7.56,6.45-15,5s-12.89-6.06-12.07-10.28,7.55-6.45,15-5S1858.66,926.47,1857.84,930.69Z"/><path class="cls-1" d="M2015.08,961.28c-.82,4.22-7.56,6.46-15,5S1987.14,960.22,1988,956s7.55-6.46,15-5S2015.9,957.06,2015.08,961.28Z"/><rect class="cls-1" x="1843.32" y="939.69" width="159.06" height="7.07" transform="translate(3215.96 -764.08) rotate(101.01)"/><path class="cls-1" d="M1935.56,878.28c-4.22-.82-6.45-7.55-5-15s6.06-12.89,10.28-12.07,6.45,7.56,5,15S1939.78,879.1,1935.56,878.28Z"/><path class="cls-1" d="M1905,1035.52c-4.22-.82-6.46-7.56-5-15s6-12.89,10.27-12.07,6.46,7.55,5,15S1909.18,1036.34,1905,1035.52Z"/><polygon class="cls-16" points="1327.06 895.51 1076.14 984.64 958.86 646.02 958.86 646.01 909.44 503.34 1160.35 414.21 1252.63 680.61 1327.06 895.51"/><path class="cls-17" d="M1289.47,878l-194.79,69.2L944.84,514.55l194.8-69.2Zm-173,54.7,146.91-52.19a19.45,19.45,0,0,0,11.73-24.69l-132.9-383.71A19.41,19.41,0,0,0,1117.4,460L971.08,512a19.63,19.63,0,0,0-11.83,24.93l133,384A19,19,0,0,0,1116.49,932.66Z"/><path class="cls-18" d="M1064.74,714.87c-10.14-29.3,5.09-61.39,34-71.67s60.63,5.14,70.78,34.44-5.09,61.38-34,71.67S1074.89,744.17,1064.74,714.87Z"/><polygon class="cls-19" points="1225.75 1019.42 1035.48 1209.84 781.63 956.18 781.62 956.17 674.66 849.3 864.92 658.89 1064.64 858.45 1225.75 1019.42"/><path class="cls-20" d="M1183.84,1020.1l-147.71,147.83L711.82,843.87,859.53,696Zm-134.09,125.19,111.4-111.48a19.39,19.39,0,0,0,0-27.4L873.48,719a19.71,19.71,0,0,0-27.88,0l-111,111a19.55,19.55,0,0,0,0,27.65l287.84,287.62A19.27,19.27,0,0,0,1049.75,1145.29Z"/><path class="cls-21" d="M908.09,971.76a56.23,56.23,0,1,1,79.51,0A56.24,56.24,0,0,1,908.09,971.76Z"/><rect class="cls-4" x="1220.75" y="590.14" width="391.96" height="737.83" rx="58.66"/><path class="cls-22" d="M1593.29,646.66v619.86a38.21,38.21,0,0,1-38,38.23H1278.12a38.19,38.19,0,0,1-37.94-38.23V646.66a38.19,38.19,0,0,1,37.94-38.23h277.21A38.21,38.21,0,0,1,1593.29,646.66Z"/><path class="cls-4" d="M1473.31,631.48H1360.15A18.57,18.57,0,0,1,1341.64,613h0a18.57,18.57,0,0,1,18.51-18.51h113.16A18.57,18.57,0,0,1,1491.82,613h0A18.57,18.57,0,0,1,1473.31,631.48Z"/><rect class="cls-23" x="1244.21" y="264.13" width="129.11" height="129.11" transform="translate(284.36 -549.67) rotate(26.51)"/><rect class="cls-24" x="1174.53" y="229.37" width="129.11" height="129.11" transform="translate(261.52 -522.22) rotate(26.51)"/><path class="cls-3" d="M1230.39,289.65a9.69,9.69,0,1,1,4.35,13A9.69,9.69,0,0,1,1230.39,289.65Z"/><path class="cls-3" d="M1284.8,271a9.69,9.69,0,1,1,4.35,13A9.68,9.68,0,0,1,1284.8,271Z"/><path class="cls-3" d="M1175.43,309.43a9.68,9.68,0,1,1,4.34,13A9.68,9.68,0,0,1,1175.43,309.43Z"/><path class="cls-3" d="M1326.7,337.7c2.38-4.79,7-7.36,10.21-5.73s3.95,6.81,1.56,11.6-7,7.35-10.21,5.73S1324.31,342.48,1326.7,337.7Z"/><rect class="cls-25" x="1559.26" y="1192.25" width="132.21" height="132.21"/><rect class="cls-8" x="1479.52" y="1192.25" width="132.21" height="132.21"/><circle class="cls-3" cx="1545.63" cy="1258.41" r="9.92" transform="translate(-34.24 2473.56) rotate(-76.72)"/><path class="cls-3" d="M1494.38,1216.45a9.92,9.92,0,1,1,9.92,9.91A9.92,9.92,0,0,1,1494.38,1216.45Z"/><circle class="cls-3" cx="1586.96" cy="1216.45" r="9.92" transform="translate(-395.35 1478.44) rotate(-45)"/><path class="cls-3" d="M1494.38,1301.66a9.92,9.92,0,1,1,9.92,9.92A9.92,9.92,0,0,1,1494.38,1301.66Z"/><circle class="cls-3" cx="1586.96" cy="1301.66" r="9.92" transform="translate(-44.49 2547.1) rotate(-76.72)"/><ellipse class="cls-3" cx="1628.71" cy="1216.45" rx="5.92" ry="9.92"/><path class="cls-3" d="M1672.12,1216.45c0-5.48,2.65-9.92,5.92-9.92s5.92,4.44,5.92,9.92-2.65,9.91-5.92,9.91S1672.12,1221.92,1672.12,1216.45Z"/><ellipse class="cls-3" cx="1628.71" cy="1301.66" rx="5.92" ry="9.92"/><path class="cls-3" d="M1672.12,1301.66c0-5.48,2.65-9.92,5.92-9.92s5.92,4.44,5.92,9.92-2.65,9.92-5.92,9.92S1672.12,1307.14,1672.12,1301.66Z"/><path class="cls-26" d="M1079.94,1137.7a115.39,115.39,0,1,1-7.29-40.5A115.62,115.62,0,0,1,1079.94,1137.7Z"/><circle class="cls-27" cx="964.16" cy="1137.7" r="85.73" transform="translate(-328.71 1880.96) rotate(-79.61)"/><circle class="cls-28" cx="964.16" cy="1137.7" r="76.62" transform="translate(-347.59 1847.12) rotate(-78.13)"/><path class="cls-27" d="M985.18,1023.84l-1.89,19.26H945l-2.28-19.19a116,116,0,0,1,42.42-.07Z"/><path class="cls-27" d="M985.4,1251.52a116.2,116.2,0,0,1-43.14-.12l2.2-22.51h38.25Z"/><path class="cls-27" d="M1072.65,1097.2l-18.53,8.55-19.34-33,15.85-12A115.37,115.37,0,0,1,1072.65,1097.2Z"/><path class="cls-27" d="M893.56,1199.23l-17.66,13.39a115.36,115.36,0,0,1-21.28-37.35l19.58-9Z"/><path class="cls-27" d="M1073.91,1174.67a115.63,115.63,0,0,1-21.09,37.48l-18.11-13,19.16-33.1Z"/><path class="cls-27" d="M893.33,1072.53l-19.16,33.11-18.65-8a115.35,115.35,0,0,1,21.85-36.55Z"/><path class="cls-29" d="M1040.3,1304.76v15.56a4.05,4.05,0,0,1-4,4H814a4,4,0,0,1-4-4v-15.56a4,4,0,0,1,4-4h222.25A4.05,4.05,0,0,1,1040.3,1304.76Z"/><polygon class="cls-27" points="945.66 1324.36 904.41 1324.36 905.63 1300.73 944.18 1300.73 945.66 1324.36"/><polygon class="cls-27" points="862.54 1324.36 821.29 1324.36 822.51 1300.73 861.05 1300.73 862.54 1324.36"/><polygon class="cls-27" points="1032.76 1324.36 991.5 1324.36 992.73 1300.73 1031.27 1300.73 1032.76 1324.36"/><path class="cls-30" d="M1060.82,1281.13v15.56a4,4,0,0,1-4,4H834.54a4,4,0,0,1-4-4v-15.56a4,4,0,0,1,4-4H1056.8A4,4,0,0,1,1060.82,1281.13Z"/><polygon class="cls-27" points="966.19 1300.73 924.94 1300.73 926.16 1277.1 964.71 1277.1 966.19 1300.73"/><polygon class="cls-27" points="883.07 1300.73 841.82 1300.73 843.04 1277.1 881.58 1277.1 883.07 1300.73"/><polygon class="cls-27" points="1053.28 1300.73 1012.03 1300.73 1013.25 1277.1 1051.8 1277.1 1053.28 1300.73"/><path class="cls-31" d="M1044,1257.51v15.56a4,4,0,0,1-4,4H817.69a4,4,0,0,1-4-4v-15.56a4,4,0,0,1,4-4h222.25A4,4,0,0,1,1044,1257.51Z"/><polygon class="cls-27" points="949.34 1277.1 908.09 1277.1 909.31 1253.48 947.85 1253.48 949.34 1277.1"/><polygon class="cls-27" points="866.21 1277.1 824.96 1277.1 826.18 1253.48 864.73 1253.48 866.21 1277.1"/><polygon class="cls-27" points="1036.43 1277.1 995.18 1277.1 996.4 1253.48 1034.94 1253.48 1036.43 1277.1"/><path class="cls-14" d="M773,1213.85a110.79,110.79,0,1,1-7-38.85A110.67,110.67,0,0,1,773,1213.85Z"/><circle class="cls-15" cx="661.9" cy="1213.85" r="82.25" transform="translate(-74.15 43.47) rotate(-3.56)"/><circle class="cls-14" cx="661.9" cy="1213.85" r="73.51" transform="translate(-653.64 1639.21) rotate(-79.31)"/><path class="cls-8" d="M682.06,1104.61l-1.81,18.49h-36.7l-2.19-18.42a112,112,0,0,1,40.7-.07Z"/><path class="cls-8" d="M682.27,1323.06a111.95,111.95,0,0,1-41.39-.12l2.11-21.6h36.7Z"/><path class="cls-8" d="M766,1175l-17.77,8.21-18.56-31.66L744.85,1140A110.52,110.52,0,0,1,766,1175Z"/><path class="cls-8" d="M594.16,1272.88l-16.94,12.85a110.43,110.43,0,0,1-20.42-35.83l18.79-8.67Z"/><path class="cls-8" d="M767.18,1249.32a110.59,110.59,0,0,1-20.23,36l-17.38-12.46L748,1241.06Z"/><path class="cls-8" d="M593.94,1151.33l-18.38,31.77-17.9-7.69a110.69,110.69,0,0,1,21-35.06Z"/><path class="cls-1" d="M570.15,838.46c.33-1.32-28.66,13.1-30.13,14.73-13.6,15.09-9.72,34.77-1.94,35,5,.12,4,8.41,4,8.41l55.59-23.51S591,834,570.15,838.46Z"/><path class="cls-1" d="M577,841.51s2-21.66-22.21-21.66c0,0,7.33,2,11.12,6,0,0-15.43-9.06-32.22,4.86s-6.36,48.83-11.47,55.46-25,8-22.56,29.39,63.11,48.27,59.22,66c0,0,23.78-35,6.77-50.92,0,0,8.29,7.81,9.14,17.09,0,0,2.25-18.12-9.28-23.91-10.21-5.13-18.56-23.89-17.68-27.24S577,841.51,577,841.51Z"/><path class="cls-6" d="M555,943.38c-3.73-18-27-23.54-38-8.87a19.55,19.55,0,0,0-3.83,9.44c-2.52,20.39,30.09,103.45,34.76,111,8.5,13.7,58.56,60.63,58.56,60.63l9.22-5.59s-35.5-60.11-41-65.73C568.33,1037.72,562.11,977.49,555,943.38Z"/><path class="cls-6" d="M603,1110s13.46-8.84,18.56-8.27,19.85,4.81,20,7-16.44,3.52-17.55,4.71-12.4,8.71-16.49,6.35S603,1110,603,1110Z"/><path class="cls-32" d="M509,1309.71,497,1308s-40.44-32.14-46.47-92.12a107.11,107.11,0,0,1-.28-18.54,3.31,3.31,0,0,0-.42-2h0c-1.29-2-4.51-7-8.88-14s-11.65-20.13-19.75-34.91c-14.58-26.61-31.56-58.44-37.39-68.58-18.55-32.31-9.61-54-9.61-54s51.77-5.12,65.95-17.53l5.11,7.88s11.22,49.65,10.69,49.88l1.68,5.16c8.85,27.32,19,61.46,24.59,89.27,3.12,15.65,4.77,29.29,3.88,38.58-.3,3.18.07,8.08.91,14.12C492,1246.68,509,1309.71,509,1309.71Z"/><path class="cls-1" d="M534.27,1324.93H484.09s-1.21-7.65,1.41-13.45c2.52-5.57,6.1-5.74.46-14.47,3.19,3.28,13.44,4.64,20.7,3.66.89,1.45,5.73,11.11,8.7,13.25C518.64,1316.27,533.26,1315.43,534.27,1324.93Z"/><path class="cls-3" d="M457.62,1069.07c-4.38,24.18-14.74,64.41-36.43,77.22-14.58-26.61-31.56-58.44-37.39-68.58-18.55-32.31-9.61-54-9.61-54s51.77-5.12,65.95-17.53l5.11,7.88s11.22,49.65,10.69,49.88Z"/><path class="cls-7" d="M549.66,932.23s7.09,7.38,10.34,16.22c0,0-11.32,32.5-37.78,36.58C522.22,985,543.15,932.22,549.66,932.23Z"/><path class="cls-32" d="M422.43,1027.41l.17-9.38c-18.7,2.36-64.48-22.35-64.48-22.35s-19.57,13-22.24,50.17c-1.31,18.14-9.58,94.85-10.5,117.75-.33,8.3-.44,14.23-.48,16.6,0,0,0,0,0,0a3.27,3.27,0,0,1-.79,1.93A106.83,106.83,0,0,0,314,1197.68c-28.54,53.1-13.62,125.24-13.62,125.24l6.63-1.69s24.13-74.78,39.9-107.13c2.67-5.49,5.1-9.76,7.14-12.23,5.93-7.2,12.18-19.43,18.34-34.15,11.65-27.82,23-64.54,31-93C404,1074.85,422.43,1027.41,422.43,1027.41Z"/><path class="cls-5" d="M531.86,964.77c-30.57-7-11-50-9.27-49.22,4.24-.86,13.54-8.3,21.86-22.82l1.13,1,18.77,16.46s-4.34,6.41-8,12.68c-2.85,4.91-5.28,9.75-4.89,11.41C553,935.43,540,966.64,531.86,964.77Z"/><path class="cls-6" d="M564.35,910.17s-4.34,6.39-8,12.67c-11.67-7.19-11.69-21.65-10.79-29.13Z"/><path class="cls-5" d="M564.87,918.41s-28.34-15.77-18.25-33.27,13.23-31.32,31.76-22,18.16,18,16.21,24.68S572.51,922.06,564.87,918.41Z"/><path class="cls-1" d="M599.38,877.62c-1.3-7.77-5.25-8.51-8-8-10.47-17.31-27.57-10.56-27.57-10.56a38.63,38.63,0,0,1-22.34,13.42s3.29,6.12,16.84,9.91c4.14,1.16,8.84.46,13.37-1.07a75.72,75.72,0,0,1-19.24,7.25c17.86,1.64,34.86-14.69,36.62-16.44.82,2.53,2.27,7.83,1.4,11.7-1.17,5.26-5.85,14.8-3,16C587.47,899.87,601.32,889.27,599.38,877.62Z"/><path class="cls-1" d="M340.27,1324.93H290.09s-1.21-7.65,1.41-13.45c2.52-5.57,6.45-8.1,5.51-14.83,3.19,3.28,8.38,7,15.64,6,.89,1.44,5.74,9.15,8.71,11.29C324.64,1316.27,339.26,1315.43,340.27,1324.93Z"/><path class="cls-7" d="M535.46,998.83c-6.46,2.25-15.52,3.48-24.79,4.49-13.2,1.44-26.82,2.43-34,5.27-2.6,1-4.35,2.32-4.89,4-3.09,9.31-16.73,23.66-16.73,23.66-87.38-4-97-40.53-97-40.53,58.79-68.36,158.33-88.15,158.33-88.15s7.11-3,25,11.21c11.95,9.5,10.38,13.15,10.38,13.15S554.46,992.2,535.46,998.83Z"/><path class="cls-27" d="M510.67,1003.32c-13.2,1.44-26.82,2.43-34,5.27-2.92-43.58,17.65-76.36,17.65-76.36S507.77,986.83,510.67,1003.32Z"/><path class="cls-5" d="M524.25,923.8s-33.08,3.27-35.73,24.75,31.71,109,36.63,117c9,14.43,61.71,63.89,61.71,63.89l9.72-5.9s-37.42-63.34-43.21-69.27C544.28,1044.92,535.45,931.24,524.25,923.8Z"/><path class="cls-7" d="M489.48,961.48c.08.49,30.52,9.95,50.11,0,0,0,4.19-45.19-19.2-42.74s-37.23,9.82-37.82,21S489.48,961.48,489.48,961.48Z"/><path class="cls-5" d="M583.85,1123.1s11.87-10.89,17-11.15,20.36,1.55,20.89,3.66-15.65,6.13-16.56,7.48-10.84,10.6-15.25,8.93S583.85,1123.1,583.85,1123.1Z"/><path class="cls-14" d="M1510.3,1134c-.73.44-1.48.87-2.24,1.29l-.77.42c-.58.31-1.17.61-1.76.9a59.48,59.48,0,0,1-61-101.65,57.72,57.72,0,0,1,6.07-3.84c.76-.42,1.53-.82,2.3-1.2s1.51-.73,2.27-1.07a59.32,59.32,0,0,1,7.08-2.63,58.59,58.59,0,0,1,10.77-2.17,59.49,59.49,0,0,1,37.24,110Z"/><path class="cls-15" d="M1479.78,1137.13a53.33,53.33,0,0,1-46.76-27.55h0a53.33,53.33,0,1,1,46.76,27.55Zm-.16-105.15a51.87,51.87,0,0,0-45.34,76.9h0a51.82,51.82,0,1,0,45.34-76.9Z"/><path class="cls-14" d="M1317.24,698.42l-1,0-.34,0-.78-.07a23.35,23.35,0,0,1,1.24-46.52,24.13,24.13,0,0,1,2.82,0l1,.09c.32,0,.65.07,1,.12a24.86,24.86,0,0,1,2.9.62,24.16,24.16,0,0,1,4,1.55,23.36,23.36,0,0,1-10.84,44.27Z"/><path class="cls-15" d="M1306.47,693a21,21,0,0,1-9.68-19h0a20.92,20.92,0,1,1,9.68,19Zm22.11-34.87a20.36,20.36,0,0,0-31.22,15.92h0a20.35,20.35,0,1,0,31.22-15.92Z"/><path class="cls-14" d="M1502.25,780.29q-.81.76-1.65,1.5l-.58.49-1.32,1.08A51.3,51.3,0,0,1,1429,708.54a51.85,51.85,0,0,1,4.43-4.33c.57-.49,1.15-1,1.73-1.43s1.14-.88,1.72-1.3a50.28,50.28,0,0,1,5.5-3.49,50.8,50.8,0,0,1,8.7-3.76,51.3,51.3,0,0,1,51.13,86.06Z"/><path class="cls-15" d="M1477.06,788.39a46,46,0,0,1-44.38-14.86h0a46,46,0,1,1,44.38,14.86Zm-19-88.68a44.73,44.73,0,0,0-24.45,73h0a44.68,44.68,0,1,0,24.45-73Z"/><path class="cls-14" d="M1354.11,1053h-1.77l-1,0a30.51,30.51,0,0,1-1.2-60.79,32.06,32.06,0,0,1,3.68-.16c.45,0,.9,0,1.34.06s.85,0,1.28.1a30.14,30.14,0,0,1,3.82.64,29.36,29.36,0,0,1,5.34,1.78,30.51,30.51,0,0,1-11.47,58.42Z"/><path class="cls-15" d="M1339.74,1046.63a27.37,27.37,0,0,1-13.78-24.19h0a27.33,27.33,0,1,1,13.78,24.19Zm26.75-46.84a26.61,26.61,0,0,0-39.79,22.66h0a26.59,26.59,0,1,0,45.71-18A27,27,0,0,0,1366.49,999.79Z"/><path class="cls-14" d="M1368.05,1197A81.87,81.87,0,0,0,1258,1183.48c-.93.66-1.86,1.35-2.77,2.07s-1.86,1.48-2.77,2.26a81.72,81.72,0,0,0-7.15,6.87c-1.81,2-3.5,4-5.09,6.09v65.75a38.19,38.19,0,0,0,37.94,38.23h88.79A82,82,0,0,0,1368.05,1197Z"/><path class="cls-15" d="M1362.19,1203.24a73.57,73.57,0,0,0-122,15.51v4.84a71.52,71.52,0,1,1,113.2,81.16h2.95A73.56,73.56,0,0,0,1362.19,1203.24Z"/><path class="cls-15" d="M1336,1235.12l-3.08-6.73-9.05,4.15-10-21.77-11,5,8.41,18.31,1.59,3.45-10.18,4.67-20.58-16.9-15.37,7.05,10,21.77-8.65,4,3.09,6.73,8.65-4,4,8.65-8.65,4,3.09,6.73,8.65-4,7,15.2,11-5-7-15.2,14.18-6.5,14.19,11.88,14.74-6.77-7-15.19,9-4.15-3.08-6.73-9,4.15-4-8.66Zm-53,5,.08,0c.94.91,2.48,2.29,8.38,7.3l-3.9,1.79C1285.94,1245.87,1284.4,1242.81,1283,1240.15Zm11.76,24.36c-1.36-3-2.7-5.84-4-8.63l7-3.19,8.06,6.78Zm29.27-4.37-.16.07q-.25-.29-.6-.63l.36-.16C1323.76,1259.66,1323.89,1259.9,1324,1260.14Zm-3.86-7.29-3,1.38c-2-1.7-4.65-3.88-8.12-6.75l7-3.19C1317.41,1247.29,1318.81,1250.17,1320.16,1252.85Z"/><path class="cls-15" d="M1506.05,1078.49l-1.16-5.51-7.4,1.55-3.74-17.81-9,1.88,3.14,15,.6,2.83-8.33,1.75c-3.21-4.16-7.27-9.39-12.41-16l-12.58,2.64,3.74,17.82-7.08,1.48,1.16,5.51,7.08-1.48,1.48,7.08-7.07,1.49,1.15,5.51,7.08-1.49,2.61,12.43,9-1.88-2.61-12.44,11.61-2.43c2.45,3.23,5.27,6.94,8.51,11.19l12.07-2.53-2.61-12.44,7.4-1.55-1.15-5.51-7.41,1.55-1.48-7.08Zm-40.12-5.2h.07c.54.83,1.45,2.11,5,6.82l-3.19.67C1467.15,1078,1466.53,1075.51,1465.93,1073.29Zm4.62,20c-.51-2.41-1-4.78-1.52-7.07l5.69-1.2,4.83,6.39ZM1493,1095l-.13,0c-.1-.18-.21-.36-.35-.57l.3-.06Zm-1.63-6-2.46.51c-1.21-1.59-2.8-3.66-4.89-6.37l5.7-1.19C1490.24,1084.38,1490.79,1086.75,1491.35,1089Z"/><path class="cls-15" d="M1367.19,1027.89l1.13-3-4.09-1.52,3.65-9.84-5-1.84-3.07,8.28-.57,1.56-4.6-1.7c-.29-3-.67-6.82-1.14-11.62l-7-2.58-3.65,9.84L1339,1014l-1.12,3,3.9,1.45-1.45,3.91-3.91-1.45-1.12,3,3.9,1.45-2.54,6.87,5,1.84,2.55-6.87,6.41,2.38c.2,2.33.44,5,.71,8.07l6.67,2.47,2.54-6.86,4.09,1.51,1.13-3-4.09-1.51,1.45-3.92Zm-18-14.86,0,0c0,.57,0,1.47.33,4.85l-1.76-.65C1348.36,1015.72,1348.83,1014.3,1349.22,1013Zm-3.91,11.2c.5-1.34,1-2.65,1.44-3.92l3.14,1.16c.11,1.31.24,2.83.39,4.6Zm10.43,7.71-.07,0v-.38l.17.06C1355.8,1031.71,1355.77,1031.82,1355.74,1031.94Zm1.06-3.45-1.36-.51c-.1-1.15-.24-2.64-.42-4.6l3.14,1.16C1357.67,1025.91,1357.21,1027.24,1356.8,1028.49Z"/><path class="cls-15" d="M1327.73,678l.8-2.16-2.9-1.08,2.59-7-3.53-1.3-2.18,5.87c-.13.37-.27.74-.41,1.11l-3.26-1.21c-.21-2.14-.48-4.84-.81-8.25l-4.93-1.83-2.6,7-2.77-1-.8,2.16,2.77,1-1,2.78-2.77-1-.8,2.16,2.77,1-1.81,4.88,3.53,1.3,1.81-4.87,4.55,1.68c.14,1.66.31,3.56.5,5.74l4.74,1.75,1.81-4.87,2.9,1.08.8-2.17-2.9-1.07,1-2.78ZM1315,667.42h0c0,.4,0,1,.23,3.44l-1.25-.46C1314.36,669.32,1314.69,668.31,1315,667.42Zm-2.77,8c.35-1,.69-1.89,1-2.79l2.23.83c.08.93.18,2,.29,3.26Zm7.4,5.47,0,0v-.27l.12,0C1319.64,680.68,1319.62,680.76,1319.6,680.84Zm.75-2.45-1-.36c-.07-.82-.17-1.88-.3-3.27l2.23.83C1321,676.56,1320.64,677.5,1320.35,678.39Z"/><path class="cls-15" d="M1494.75,739.72l-.32-5.26-7.08.43-1-17-8.59.53.88,14.32c.05.9.11,1.8.17,2.7l-8,.49c-2.42-4.29-5.47-9.69-9.33-16.51l-12,.74,1,17-6.76.41.32,5.27,6.76-.42.42,6.77-6.76.41.32,5.26,6.76-.41.74,11.88,8.58-.53-.73-11.88,11.09-.68,6.37,11.53,11.53-.71-.73-11.88,7.07-.43-.32-5.27-7.08.44-.41-6.77Zm-36.48-10.26h.07c.39.85,1.05,2.16,3.69,7l-3,.19C1458.76,734,1458.53,731.59,1458.27,729.46Zm1.56,19.2c-.14-2.31-.29-4.58-.45-6.77l5.44-.33c1,1.87,2.22,4,3.61,6.57Zm20.56,4.6h-.12l-.24-.57.28,0C1480.34,752.88,1480.37,753.07,1480.39,753.26Zm-.69-5.82-2.35.14c-.9-1.65-2.09-3.77-3.66-6.57l5.44-.33C1479.3,743,1479.49,745.31,1479.7,747.44Z"/><path class="cls-1" d="M2291.61,1303.72s1.62,18.69-2.34,20.64l-50.58-.11s0-5.83,8.13-7.13,22.39-6,24.81-16.65S2291.61,1303.72,2291.61,1303.72Z"/><path class="cls-1" d="M2436.74,1296.48s1.53,25.93-2.43,27.88l-50.58-.11s0-5.83,8.13-7.13,22.39-6,24.81-16.65S2436.74,1296.48,2436.74,1296.48Z"/><path class="cls-33" d="M2438.47,1299.67s-10,5.17-14.34,6.11c-4.78,1.06-13.75.39-13.75.39-17.2-46.12-70.55-233.6-70.55-233.6-2.32,51.84-11.68,103.54-21.4,145.1l-.78,3.32h0c-.24,1-.48,2-.71,3a.7.7,0,0,0,0,.14c-11.8,49-23.63,82.44-23.63,82.44s-3.06,3.87-11.57,2.1c-9.75-2-13-6.31-13-6.31,6.31-199.76,9.83-312.41,9.83-312.41s84.45-45.62,107.39-6.62S2438.47,1299.67,2438.47,1299.67Z"/><path class="cls-34" d="M2404.44,1010.25c-11-39.15-12.75-76.31-12.66-107.08.11-43.79,4-74.63-9.13-79.83,0,0-40.72-11.84-68.75-17.05a136.13,136.13,0,0,0-13.18-6.56c-8.85-3.59-43.35-53.75-49.2-65.75S2236,669.65,2236,669.65l-13.44,4.29s-4,58.72-2.11,74,44.66,81.12,48.2,86.88h0c15.21,55.59,0,146,7,166.22,3.58,10.37,69.88,29.39,106.17,27,1.81-.12,3.55-.29,5.19-.52h0c8.59-1.2,14.83-3.94,17.12-8.75A11.86,11.86,0,0,0,2404.44,1010.25Z"/><path class="cls-5" d="M2236,669.65s7.6-22.07,2-22.71-19.5-.58-21.22,3.15,5.74,23.85,5.74,23.85Z"/><path class="cls-5" d="M2326,800.28l-.65,3.4s-3,10.42,9.74,14.56,23.51,6,24.78-2.21c.07-6.57-.09-16.83.86-22.09a37.11,37.11,0,0,1,1.7-6.33l-25.2-5.44-7.69-.26Z"/><path class="cls-6" d="M2329.58,781.91l-2.35,12.38c24,6.35,34.41-4.42,35.24-6.68l-25.2-5.44Z"/><path class="cls-5" d="M2366.19,782.54c-7.43,15.1-27.84,8.81-36.45,5.32-2.42-1-3.9-1.74-3.9-1.74-2.61-1.55-2.94-6.43-2-12.45,1.78-11.92,8.36-28.3,11.51-32.08,4.75-5.68,12.24-11.16,31.52-.28S2375.71,763.19,2366.19,782.54Z"/><path class="cls-8" d="M2339.14,777.06s-2,3.64-8.61.5c-1.37-.65-4.19-3.13-3-5.24C2327.5,772.32,2334.87,772.21,2339.14,777.06Z"/><path class="cls-27" d="M2330.68,828s-11.5,76.33-97.53,129.32l-8,23.32h31s77-64.61,82.21-150.44Z"/><polygon class="cls-27" points="2330.68 828.02 2330.68 816.46 2344.86 820.47 2338.39 830.22 2330.68 828.02"/><path class="cls-35" d="M2326,800.28l-8.3,7.09A32.64,32.64,0,0,0,2321,828l16.73-9.56S2327.89,813.69,2326,800.28Z"/><path class="cls-35" d="M2337.77,818.46s1.66,9,6,13.43c0,0,18.85-3.3,24.08-12.33L2360,807.23S2358.08,815.64,2337.77,818.46Z"/><path class="cls-5" d="M2450.67,1016.27s0,17.09-1.54,20.49-8.63,14.47-11.88,16.83.71-13.68-.31-16.62-2.28,5.79-3.78,6.15-1.91-7.33-2.26-10.11,6.41-10.44,8.42-16.64S2450.67,1016.27,2450.67,1016.27Z"/><path class="cls-34" d="M2382.38,823.34s16.57,4.51,27.8,29.22c11.77,25.9,43.28,83.45,44.45,91.4s-2.09,82.11-2.09,82.11-13.79.54-18-6c0,0-4.8-65.12-6.93-68.66s-56.39-68.26-51.82-84.68S2382.38,823.34,2382.38,823.34Z"/><path class="cls-35" d="M2404.09,1018.79a45.11,45.11,0,0,1-17.12,8.75h0a13.51,13.51,0,0,1-5.19.52c-30.32-3.12-25.66-120.94-11-129.65,15.49-9.17,21,4.76,21,4.76-.09,30.77,1.71,67.93,12.66,107.08A11.86,11.86,0,0,1,2404.09,1018.79Z"/><path class="cls-4" d="M2318.43,1217.67c9.28-43.92-.72-161.6,3.74-163.84s17.66,18.74,17.66,18.74C2337.51,1124.41,2328.15,1176.11,2318.43,1217.67Z"/><path class="cls-1" d="M2379.72,736a.56.56,0,0,0,.17-.11c.44-.45,1.23-.1,1.23-.1a6.41,6.41,0,0,0-2.93-1s0-.12-.13-.29a5,5,0,0,0-1.08-3.24,5.36,5.36,0,0,1,.27,2.39c-3.05-2.88-12.88-10.15-22.67-8.8a71.32,71.32,0,0,1-21.36-.2c-.2.7-5.82,13.91.32,18.32-1.11,3,18,5.82,21.89,11.31s-2.78,10.84,2.29,14.85l.09.07a3.24,3.24,0,0,0,4.32-.39c1.33-1.38,3.37-2.89,4.83-1.55s1.47,6.86-1.11,8.33c-1.64.32-2.29,2.35-1.9,3.68a10.55,10.55,0,0,1-1.48,8.34S2374,776.53,2380.93,772C2386.71,768.28,2391.49,746.42,2379.72,736Z"/><path class="cls-14" d="M2339.86,543.74a115.47,115.47,0,1,1-7.3-40.51A115.29,115.29,0,0,1,2339.86,543.74Z"/><circle class="cls-15" cx="2224.08" cy="543.74" r="85.73" transform="translate(-9.35 39.78) rotate(-1.02)"/><circle class="cls-14" cx="2224.08" cy="543.74" r="76.62" transform="translate(-9.35 39.78) rotate(-1.02)"/><path class="cls-8" d="M2245.09,429.87l-1.88,19.26H2205l-2.28-19.19a116.57,116.57,0,0,1,42.41-.07Z"/><path class="cls-8" d="M2245.32,657.56a116.54,116.54,0,0,1-43.15-.13l2.21-22.51h38.25Z"/><path class="cls-8" d="M2332.56,503.23,2314,511.79l-19.34-33,15.85-12A115.29,115.29,0,0,1,2332.56,503.23Z"/><path class="cls-8" d="M2153.48,605.26l-17.66,13.39a115.31,115.31,0,0,1-21.28-37.34l19.58-9Z"/><path class="cls-8" d="M2333.82,580.7a115.31,115.31,0,0,1-21.08,37.48l-18.12-13,19.16-33.1Z"/><path class="cls-8" d="M2153.25,478.56l-19.16,33.12-18.66-8a115.33,115.33,0,0,1,21.86-36.54Z"/><path class="cls-5" d="M2235.25,669.92s5.92-2.91,7.81-6.32,6.49-8.85,4.89-10-11.15,5.9-11.15,5.9Z"/><path class="cls-5" d="M1869.72,270.07s2.12-3.41,3.67-3.8,3.93-6.11,5.32-8.32c0,0-.84-1.68-2.94.06a48,48,0,0,1-4.87,3.05Z"/><path class="cls-14" d="M1556.1,903.69c0-.38-.26-.43-.54-.49-3.31-3.05-3.74-7.22-4.24-11.73-2.6,4-4.93,7.61-7.35,11.2-2.29,3.41-5.1,5.76-9.6,4.22l0,0c-.2-.15-.47-.25-.71-.42-4.27-2.9-6.06-7-5.86-12.07a92.58,92.58,0,0,1,7.28-25.24c1.73-3.12,3.38-6.31,5.92-8.88,1.44-1.47,2.94-2.89,5.06-3.32,2.1,1,4.06,1.83,5.42,3.73.3.42.65,1.07,1.22.69s.41-1.14.07-1.69a6.86,6.86,0,0,0-2.73-2,19.09,19.09,0,0,0-2.31-1.16,9.4,9.4,0,0,1,7.71,2.49c.34.39,1.8,1.83,1.8,1.83s-.24-1.59-.28-2.06c-.11-1.58-1-4,1.77-4.62,3.24-.75,6.2-.47,8.31,2.53.57,3.82-.56,7.44-1.3,11.1-1.54,7.69-3.9,15.21-4.7,23-.1.9-.5,2.12.58,2.65s1.91-.27,2.63-.91a27.89,27.89,0,0,0,3.2-3.23,27.06,27.06,0,0,0,5.26-11.29c.48-.81.85-1.92,2-.72a1,1,0,0,1,.32.59,14.94,14.94,0,0,1-.32,2.88,32,32,0,0,1-8.22,18.8C1563.8,902.72,1560.44,904.54,1556.1,903.69Zm-1.33-34.86c0-1.57-.39-3.19-2.21-3.76s-3.29.63-4.24,2.09a68.49,68.49,0,0,0-10.49,29.17c-.12.87-.17,2,.73,2.41s1.65-.48,2.23-1.1a71.32,71.32,0,0,0,10.66-15.35C1553.71,878.14,1554.15,873.52,1554.77,868.83Zm5.43-13.65c3.52,1.64,3.52,4.62,3,7.63-.64,3.69-1.57,7.33-2.31,11-1.22,6-3.19,11.92-3.46,18.12,0,.93-.52,2.56,1.1,2.48,1.3-.06.34-1.46.55-2.23a16.47,16.47,0,0,0,.26-1.85c.86-5.93,2.43-11.72,3.7-17.56.79-3.66,1.65-7.32,2.33-11C1566.16,857.47,1564.16,854.87,1560.2,855.18Zm-13.81,12.76a.58.58,0,0,0-.8-.81,4.31,4.31,0,0,0-1.2,1.38c-5.32,7.85-8.05,16.71-10,25.86a20.09,20.09,0,0,0-.43,3.71c0,.7.2,1.57,1.07,1.63,1.07.09.89-.86,1-1.54a35.4,35.4,0,0,1,.34-3.73C1538.16,885.06,1541.1,876.09,1546.39,867.94Z"/><path class="cls-3" d="M1269.58,860.52c12.69-9.17,26.82-12.08,42.09-9.33,5.26.95,10.14,3,12.46,8.53A44.37,44.37,0,0,0,1303,857.6c-4.5.57-9,1.16-13.15,3.29l-3.15-.28c-1.27-.11-.82.76-.79,1.39-3.84,2.08-7.67,4.15-10.74,7.36-4.93,5.15-6.5,11.1-4.38,18,.29.95.75,1.9-.27,2.66s-1.9.15-2.72-.36a37.09,37.09,0,0,1-7.37-6.73c.6.13.7.24.8.14,2.49.2,3.09-.35,2.34-2.52-1.88-5.42-1.7-10.36,1.37-15.15a5.93,5.93,0,0,0,.8-1.35Z"/><path class="cls-3" d="M1432.79,922c3.47.77,5.84-.93,7.81-3.49,3.52-4.59,5.73-9.86,7.9-15.15.45-1.1.54-2.44,2.2-3.62-.74,3.58-1.4,6.64-2,9.71a37.57,37.57,0,0,0-.78,5.56c-.11,3.26,1.43,4.74,4.69,4.86,4.75.16,5.14-.44,6-5.08a103,103,0,0,1,15.9-38.58c1.1-1.63,2.33-3.47,5.12-2.91-2.33,6.13-4.66,12.09-6.86,18.1s-4,11.86-3.49,18.27a43.75,43.75,0,0,0-3.64,14.42,2.36,2.36,0,0,1-2.11,2.48c-4,1-7-.14-9.76-3.22-2.41-2.74-2.56-2.58-4.63.42a24.62,24.62,0,0,1-2.31,3c-3.16,3.33-5.88,3.38-9.18.2C1436,925.3,1434.43,923.63,1432.79,922Z"/><path class="cls-3" d="M1488.23,945.84c7.72,2.78,15.23,1.12,21.91-3a20.87,20.87,0,0,0,6.47-5.23c8.77-9.55,12.56-21.23,8.45-34.24a19.13,19.13,0,0,1,9.26,14.16c1.71,17.12-12,34.5-29,36.76-5,.68-9.62-.16-13.07-4.33C1491.1,948.65,1490.15,947.8,1488.23,945.84Z"/><path class="cls-3" d="M1491.56,919.33a96.34,96.34,0,0,1-10.4,3.11,26.12,26.12,0,0,1-8.07-7.45c6.49,1.84,8.58,1.18,12.29-4.61,5.75-9,8.94-19,11.33-29.3.41-1.73.33-3.93,1.39-5.05s3.14.16,4.8.09a32.17,32.17,0,0,0,17.88-6.39c.49-.36,1-.74,2-1.56-1.55,6.44-4.91,10.94-9.2,14.88a13.09,13.09,0,0,0-2.88.17c-1.88.51-4.26-1.73-5.54.4-1,1.71-1,4.06-1.4,6.12a3.36,3.36,0,0,0-.43.31c-1.2,1.09-3.71-.13-4.11,2.18-.54,3.09-.91,6.24,1.35,8.94C1497.85,907.36,1495.44,913.71,1491.56,919.33Z"/><path class="cls-3" d="M1326,920.79a68.29,68.29,0,0,0,0,8.09,58.66,58.66,0,0,1-18.18,19.36,35.59,35.59,0,0,1-11.53,5.56c-4.43,1.06-8.32.37-11.53-3.11-1.26-1.37-2.68-2.61-4-3.91,7.28,1.43,13.44-1.17,19.17-5.32a46.52,46.52,0,0,0,12-10.32l1.39-1.58.27-.38c4.28-5.21,5.8-13.46,4-20.63C1319.68,911.17,1323.9,918.48,1326,920.79Z"/><path class="cls-3" d="M1329.13,934.77c3.49,1.06,9.67,4.5,13.2,2.37a18.67,18.67,0,0,0,3-2.55c5.21-6,7.54-13.29,9.55-20.72a42.83,42.83,0,0,0,1.74-10.84,2.32,2.32,0,0,1,1.66-2.36c4.65-2.14,6.42-3.73,9.57-8.54a39.6,39.6,0,0,1-1.08,8.5,43.28,43.28,0,0,1-2,8.22c-1,2.46-1,5.29-1.51,7.94s-1.25,5.4-1.88,8.1c-1.22,2.94-2.41,5.9-3.68,8.83a32.91,32.91,0,0,1-3.9,6.66c-4.09,5.4-8.85,6.27-14.71,2.85C1336.33,941.64,1331.64,937,1329.13,934.77Z"/><path class="cls-3" d="M1331.86,896.85l-.49.6.1-.09a111.45,111.45,0,0,1-14.33,10.76,26,26,0,0,0-11.61-5.06c3.71-2.09,7.28-3.65,10.3-6.11.69-.52.88-.67,1.54-1.12l.79-.66,2.41-2.21c1.33-1.31,2.9-2.68,4.46-4.14h0c8-9.16,11.54-19.29,6.62-31.2,6.2,6.74,11.07,13.35,9,22.5-.62,2.74-1.55,5.41-2.33,8.11C1338.54,888.3,1333.63,894.1,1331.86,896.85Z"/><path class="cls-3" d="M1364.53,933.36c7.12-.43,7-.45,8.74-7.58a120.19,120.19,0,0,1,15.67-36.4c.9-1,1.76-2,2.72-2.92.63-.6,1.52-1.35,2.33-.74s0,1.44-.31,2.14c-2.91,7.54-6.1,15-8.44,22.74a28.28,28.28,0,0,0-1.45,11.83,64.79,64.79,0,0,0-4.08,14.9c-.27,1.56-.79,2.31-2.38,2.64-3.37.71-6.34.49-8.72-2.4C1367.37,936.07,1365.9,934.76,1364.53,933.36Z"/><path class="cls-3" d="M1556.1,903.69c4.34.85,7.7-1,10.47-4.05a32,32,0,0,0,8.22-18.8,13,13,0,0,0,.23-3.16c2.56,1.52,4.45,4.17,6.58,6.16a2.68,2.68,0,0,1,.55,2.27,31.08,31.08,0,0,1-9.51,21.77,11.54,11.54,0,0,1-4.06,2.55,5.94,5.94,0,0,1-6.89-1.34C1559.87,907.25,1558,905.49,1556.1,903.69Z"/><path class="cls-3" d="M1409.89,893.19a93.93,93.93,0,0,1-9.06,21.69,27.71,27.71,0,0,1-2.3,3.62c-1.17,1.46-2.19,4.24-4.22,3.32-1.88-.84-.81-3.59-.48-5.42,1.55-8.45,4.37-16.57,7.12-24.68.9-2.66,1.63-5.29,1.2-8.12,1.6,1.55,3.14,3.17,4.82,4.64A8.58,8.58,0,0,1,1409.89,893.19Z"/><path class="cls-3" d="M1535.12,869.2a92.58,92.58,0,0,0-7.28,25.24l-5.28,6.23a15.93,15.93,0,0,0-9.34-3.47c-2,0-.88-.85-.35-1.51a9.93,9.93,0,0,0,3.25-3.1l1.81-2.11h0A51.6,51.6,0,0,0,1528.62,868a33.61,33.61,0,0,0,.29-4.51C1531.26,865.08,1533,867.32,1535.12,869.2Z"/><path class="cls-3" d="M1572.75,878.09a27.06,27.06,0,0,1-5.26,11.29,27.89,27.89,0,0,1-3.2,3.23c-.72.64-1.65,1.38-2.63.91s-.68-1.75-.58-2.65c.8-7.84,3.16-15.36,4.7-23,.74-3.66,1.87-7.28,1.3-11.1a49.18,49.18,0,0,1,6.23,5.84c1.58,1.63,1.42,3.73,1.11,5.81C1573.93,871.62,1572.76,874.75,1572.75,878.09Z"/><path class="cls-3" d="M1494.85,878.35a107.29,107.29,0,0,1-9.73,25.38,24.15,24.15,0,0,1-2.42,3.52c-.6.74-1.34,1.66-2.46,1.2s-1.07-1.61-1-2.56a42.9,42.9,0,0,1,2.26-11q2.27-7.27,4.71-14.49a22.45,22.45,0,0,0,1.38-9.7C1489.9,873.34,1492.84,875.4,1494.85,878.35Z"/><path class="cls-3" d="M1451,891.3a89.76,89.76,0,0,1-7.8,17A13.45,13.45,0,0,1,1442,910c-.83,1-1.65,2.65-3.06,2.07s-.67-2.24-.5-3.43c1.2-8.76,3.57-17.29,5.28-25.95a29.35,29.35,0,0,0,.33-7.71,43.41,43.41,0,0,0,3.74,3.45c3.53,2.63,4.52,6,3.44,10.18A14.66,14.66,0,0,0,1451,891.3Z"/><path class="cls-3" d="M1388,928.92c5.44,2,8.5-1,11-5.19,2-3.33,3.85-6.7,6.19-10.76-.15,5.21,1.67,8.81,5.11,11.6-1.75,2.66-3.39,5.4-5.27,8-3.81,5.22-7.49,5.48-12.19,1C1391.17,932,1389.58,930.46,1388,928.92Z"/><path class="cls-3" d="M1532.72,905.79c4.5,1.55,9,.29,11.25-3.12,2.42-3.59,4.75-7.23,7.35-11.2.5,4.51.93,8.68,4.24,11.73a49.62,49.62,0,0,1-5.94,8.57c-2.75,3.06-5.36,3.5-8.77,1.31C1538.31,911.45,1535.12,908.2,1532.72,905.79Z"/><path class="cls-3" d="M1411.78,925.85c4.86.64,7.9-2,10.29-5.75,2.06-3.2,4-6.47,6.23-10.09.69,4.6.46,9.18,4.55,12-1.66,2.39-3.19,4.89-5,7.14-3.9,4.79-7.72,5-12.16.68C1414.33,928.54,1413.07,927.18,1411.78,925.85Z"/><path d="M1375.77,906.35c-.94.12-.64-.34-.51-.91.8-3.46,1.51-7,2.31-10.42a28,28,0,0,0,.41-9.82l5.78,5.27q-1.69,3.12-3.38,6.24c-.52.92-3.88,8.16-4.1,8.62Z"/><path d="M1469.18,876.85c-2.45,4.6-5.16,9.08-6.91,14h0c-.42.25-.32,1.08-1.2,1,1.44-6.63,4.53-13,2.86-20.08Z"/><path class="cls-15" d="M1269.11,861l-3.39,3.06a6.88,6.88,0,0,0-1.25.93c-3.83,4.41-4.2,9.56-3.11,15,.2,1,.83,2-.41,2.82l-.54.15-1.74-1.68c.74-.55.43-1.24.31-1.94-1.42-8.43,2.46-14.41,8.92-19.18C1268.55,859.62,1270.13,859.76,1269.11,861Z"/><path class="cls-15" d="M1322,948.26c8.76,4.12,18.11,4.51,27.54,4.38.44,0,.89,0,1.34,0a4.88,4.88,0,0,1,.83.36c-9.12.35-17.88.51-26.4-1.94a38.76,38.76,0,0,1-4.38-1.6c-.08-.08-.93-.87-.78-1.2S1321.58,948,1322,948.26Z"/><path class="cls-36" d="M1502.61,866.22c-2.79,1-5.54,2.53-8.49.45.27-.93.5-1.76.84-2.89C1497,866.25,1499.83,866.2,1502.61,866.22Z"/><path class="cls-3" d="M1354.3,893.63c-3.32-.74-5.24-2.94-6.43-6C1350.5,889.14,1352.28,891.49,1354.3,893.63Z"/><path class="cls-15" d="M1547.77,856.55a13.18,13.18,0,0,1,2.42,1.09,6.29,6.29,0,0,1,2.62,2.09c.34.55.53,1.29-.07,1.69s-.92-.27-1.22-.69c-1.36-1.9-3.29-2.69-5.42-3.73A13.5,13.5,0,0,1,1547.77,856.55Z"/><path class="cls-36" d="M1370.55,882.37a2.59,2.59,0,0,1-2.3.4A3.14,3.14,0,0,1,1370.55,882.37Z"/><path class="cls-8" d="M1343.66,886.64c0,.15,0,.31,0,.46l0,0-1.82,0A2.07,2.07,0,0,1,1343.66,886.64Z"/><path class="cls-3" d="M1486.09,927.41a3.8,3.8,0,0,0-2.54.66c-35.59,15.15-72.29,26.23-110.93,30.08-15.8,1.57-31.17,1.66-46.24-4.8-.66-.26-4.08-2.42-4.5-2.57.2.19,4.89,3.76,5.23,4a73.57,73.57,0,0,0,15.65,7.37c7.4,2.36,11.21,3.19,18.93,3.27a245.45,245.45,0,0,0,57.31-6.62,424.88,424.88,0,0,0,64.78-20.59A19.31,19.31,0,0,1,1486.09,927.41Z"/><path class="cls-37" d="M1472,914.19l1.15.85C1472.55,915.05,1472.32,914.56,1472,914.19Z"/><path class="cls-37" d="M1529,863.52c-.47.05-.44-.31-.48-.6Z"/><path class="cls-38" d="M1321,949.5c.22.18.44.36.67.53Z"/><path class="cls-3" d="M1424.79,886.11c1.3-1.36,2.58-3.07,4.75-2.06s2.48,3.05,2.25,5.27c-1.12,10.88-7.21,19.14-14.16,26.94-.5.56-1.17,1.3-2.08.82s-.51-1.28-.51-2c0-4.17,1.2-8.12,2.4-12a73.19,73.19,0,0,1,7-16.47Z"/><path class="cls-3" d="M1505.85,918.66a75.28,75.28,0,0,1,7.35,7.27l-1.4,1.58c-5.28,1.06-10,3.21-12.77,8.16a10.3,10.3,0,0,1-5.45.52c-2.73-.38-3.85-3-3-5.66a25.35,25.35,0,0,1,1.48-3.12l2.12-2.24a27.06,27.06,0,0,1,8.61-4.54l.94-.26C1504.84,920.29,1506.08,920.38,1505.85,918.66Z"/><path class="cls-15" d="M1509.1,897.15c2.25.46,3.06.75,4.59,1.07,6.85,1.47,11.15,6.53,11.57,13.55.51,8.75-2.47,16.32-7.49,23.25-.59.81-4.17,6-6.65,7.29-1.79,1-1.79-.63-.75-1.3,7.53-6.9,12.36-15.29,13-25.49.57-8.47-3.57-16.54-13.94-17.16-.48,0-1.18.25-1.33-.46C1508.1,897.73,1507.93,896.58,1509.1,897.15Z"/><path d="M1519.12,908.45c-2.42-.65-4.8-.1-7.15.34a5.13,5.13,0,0,1-5.07-1.6c-1.78-1.87-3.62-3.68-5.44-5.51a17.71,17.71,0,0,0,5.85-.41C1513.6,900.31,1517.87,902.93,1519.12,908.45Z"/><path class="cls-15" d="M1382.46,894.93c1.75-2.75,2.55-6,5.43-7.91.83.61,1.32,1.37.89,2.23-2.74,1.38-3.76,4.19-5.1,6.6-5.93,10.68-9.12,18.2-12.15,30.1-.09.44-.17.87-.26,1.31-.14.71-.52,1.18-1.3,1s-.56-.81-.44-1.31c.76-3.22.64-2.64,1.55-5.81a106.21,106.21,0,0,1,4.55-12.59c.29-.68,4-8.34,4.13-8.65C1379.77,899.84,1381.94,895.74,1382.46,894.93Z"/><path class="cls-15" d="M1477.81,867.9c5.87-.15,8.87,3.23,7.8,8.39-1.4,6.76-4.37,13-6,19.71-1,4-2.62,8-2,12.32.1.6.08,1.11-.63,1.22a1.22,1.22,0,0,1-1.29-.77,5.28,5.28,0,0,1-.19-3.4c1.06-6.93,3.46-13.48,5.63-20.1.62-1.86,1.28-3.72,1.84-5.6C1485,872.92,1484.32,871.34,1477.81,867.9Z"/><path class="cls-15" d="M1393.23,880.76c5.55,0,8.39,3.61,6.87,8.41-2.49,7.83-5.31,15.57-7.16,23.6-.68,3-1.6,5.86-1.25,9,.08.63-.09,1.08-.79,1.08a1,1,0,0,1-1-1,18,18,0,0,1,.21-4.8c1.67-8.44,4.47-16.56,7.18-24.7C1399.48,885.64,1397.94,884.54,1393.23,880.76Z"/><path class="cls-15" d="M1437.65,873.13c4.44,1.19,5.65,3.38,4.6,8.54-1.74,8.56-3.56,17.1-5.3,25.66-.26,1.3-.25,2.65-.38,4-.07.78,0,1.87-1.11,1.77s-1.1-1.32-1-2.13c.58-3.61,1.2-7.21,1.94-10.78,1.07-5.24,2.24-10.46,3.39-15.69.91-4.1,1.23-8.08-2.16-11.36Z"/><path class="cls-15" d="M1464.38,888.32c2-4.08,4-8.21,7-11.75.38-.45.6-1.15,1.82-.8-1.36,2.31-2.74,4.51-4,6.78-5.72,10.4-10.26,21.24-12.35,33-.18,1,.16,3-1.2,2.84-1.54-.21-.87-2.15-.69-3.23,1.18-7,3.73-13.61,6.4-20.16C1461.87,893.69,1463.88,889.31,1464.38,888.32Z"/><path class="cls-15" d="M1512.6,895.37c-3.94-.61-1.1-.27-1.75-.25A54.23,54.23,0,0,0,1523.9,873c.5-1.62.78-3.3,1.2-4.94.82-3.15-1.57-4.85-3.3-6.91,2.78-.42,4.88,1.52,5.08,4.37.35,5-1.54,9.45-3.47,13.88a58.38,58.38,0,0,1-4.57,8.17C1518.27,888.45,1513.92,894.59,1512.6,895.37Z"/><path class="cls-15" d="M1424.27,885.86c-.11.33-1.67,1.72-2.16,2.62a71.39,71.39,0,0,0-9,28.12c0,.63.16,1.37-.68,1.48-1,.14-1-.74-1.09-1.45a19.81,19.81,0,0,1,.53-5.58,79.53,79.53,0,0,1,8.28-22.27,12.9,12.9,0,0,1,2.55-3.09C1423.61,884.87,1424.71,884.54,1424.27,885.86Z"/><path class="cls-15" d="M1455.66,870.05c4.7-.4,6.62,1.37,6.78,6a26.81,26.81,0,0,1-4.93,16.28c.57-2.21,1.17-4.42,1.69-6.64s.92-4.18,1.31-6.28C1461.4,874.56,1460.13,872.16,1455.66,870.05Z"/><path class="cls-15" d="M1492.89,926.56c-2,2.29-3.82,3.49-4.17,5.47-.38,2.23.39,3.26,2.94,4.76-3.49.57-5.84-1.6-5-4.86s2.46-4.84,5.3-6.61C1492.73,924.84,1494.69,924.57,1492.89,926.56Z"/><path class="cls-15" d="M1429.77,880.78c-1.34-2.07-3.34-3.15-5.9-4.12C1428.32,876.31,1430.78,878.1,1429.77,880.78Z"/><polygon class="cls-36" points="1457.18 894.12 1457.28 893.95 1457.35 894.13 1457.18 894.12"/><path class="cls-3" d="M1291.12,940.28a18.85,18.85,0,0,1-2.06,1.14c-3.11,1.25-4.58.44-5-2.86-.77-5.81,0-11.58.75-17.33.3-2.39.89-4.75,1.09-7.14a3.25,3.25,0,0,1,3-3.3c4.71-1,9.41-2.13,14.29-1.67,4.63.43,6.73,2.7,6.54,7-5-.34-9.73.83-14.5,2a2.13,2.13,0,0,0-1.83,2C1292.37,926.8,1291,933.46,1291.12,940.28Z"/><path class="cls-3" d="M1296.31,865.08a39.48,39.48,0,0,1,6,5.62c1.45,1.52,1.53,3.52,1.28,5.53-.71,5.78-2.83,11.2-4.21,16.81-.29,1.2-.54,2.41-.8,3.62a72.09,72.09,0,0,1-10.19,5.42,132.12,132.12,0,0,1,3.42-15.14c1-3.88,2.17-7.72,3.26-11.58A27.78,27.78,0,0,0,1296.31,865.08Z"/><path class="cls-15" d="M1287,862c5.47,0,8.44,3.42,7.52,8.28-1.45,7.64-4.09,15-5.87,22.54-.55,2.35-1,4.73-1.55,7.06-.3,1.19-.31,2.78-2.44,2.82a183.51,183.51,0,0,1,4.67-19.51c.9-3.27,1.91-6.51,2.63-9.82C1293.42,866.78,1292.91,865.69,1287,862Z"/><path class="cls-15" d="M1283.75,942.74c-2.74.64-3-1.17-3.44-2.8-1.11-4-.27-8,0-12,.35-4.51,1.25-9,2-13.47.13-.86.22-2.14,1.37-1.93,1.4.26.44,1.51.35,2.23-.77,6.27-2,12.49-2.12,18.83C1281.83,936.75,1281.76,939.87,1283.75,942.74Z"/><path class="cls-15" d="M1326.23,854.31c-5.42-5.16-12.2-7.18-19.28-8.54a2,2,0,0,0-2,.5,36.8,36.8,0,0,1,11.77,3.43c4.41,2.15,8.32,4.83,10.75,9.29,4.64,8.49,2.71,16.54-1.46,24.5-1.5,2.87-8.22,10.33-9.64,11.49-.73.59-.7,2.09,1,.85h0l.79-.66,2.41-2.21c0-.38,4.84-6,5.4-6.77a27.7,27.7,0,0,0,5.53-12.37C1332.68,866.58,1332,859.76,1326.23,854.31Z"/><path class="cls-39" d="M1331.65,857.62l0,0S1331.65,857.62,1331.65,857.62Z"/><path class="cls-3" d="M1343.39,897.3c1.08,1.23,1.68,2.68,2.95,3.1,3,1,2.69,2.93,2.26,5.4a122.58,122.58,0,0,1-4.62,18.13,17.09,17.09,0,0,1-3.36,6.05c-.8.88-1.79,1.76-3,1.44s-1.41-1.7-1.54-2.86a47,47,0,0,1,1.18-14.9C1338.49,908,1340.06,902.41,1343.39,897.3Z"/><path class="cls-15" d="M1344.83,934.49a4.48,4.48,0,0,1-2.62,2.21c-.84-.07-1.7.4-.68-.85,6.55-8.12,9.15-17.81,11-27.8.21-1.22.22-2.48.32-3.72.07-.89,0-2.07,1.25-2s.93,1.39.83,2.17a81.26,81.26,0,0,1-2.33,12.06,65.52,65.52,0,0,1-6.5,15.5C1345.59,932.88,1345.42,933.52,1344.83,934.49Z"/><path class="cls-15" d="M1331.76,924.83c.31-8.68,2.08-17,6.61-24.52.36-.58.49-1.87,1.54-1.32.82.42.14,1.3-.19,1.88-4,7.09-5.42,14.87-6.16,22.83a22.27,22.27,0,0,0,.86,6.87c.14.63.81,1.48-.18,1.86s-1.42-.52-1.75-1.25C1331.54,929.15,1331.87,927,1331.76,924.83Z"/><path class="cls-15" d="M1370.69,883.58c3.2-.17,5.41,1.25,5.61,3.78.54,6.9,0,13.58-3.64,19.58a61.4,61.4,0,0,0,1.48-9.18c.17-2.51.14-4.71.2-7.14C1374.41,887.69,1374.09,885.07,1370.69,883.58Z"/><path class="cls-15" d="M1343.64,887.1a2.28,2.28,0,0,1,2.25,1c3,4.8,3.06,4.77,8.28,7.29a10,10,0,0,1-10.5-8.31Z"/><path class="cls-40" d="M1331.37,897.45l.49-.6C1331.82,897.15,1331.81,897.47,1331.37,897.45Z"/><path class="cls-3" d="M1554.77,868.83c-.62,4.69-1.06,9.31-3.32,13.46a71.32,71.32,0,0,1-10.66,15.35c-.58.62-1.25,1.57-2.23,1.1s-.85-1.54-.73-2.41a68.49,68.49,0,0,1,10.49-29.17c1-1.46,2.28-2.7,4.24-2.09S1554.72,867.26,1554.77,868.83Z"/><path class="cls-15" d="M1560.2,855.18c4-.31,6,2.29,5.17,6.6-.68,3.68-1.54,7.34-2.33,11-1.27,5.84-2.84,11.63-3.7,17.56a16.47,16.47,0,0,1-.26,1.85c-.21.77.75,2.17-.55,2.23-1.62.08-1.14-1.55-1.1-2.48.27-6.2,2.24-12.09,3.46-18.12.74-3.68,1.67-7.32,2.31-11C1563.72,859.8,1563.72,856.82,1560.2,855.18Z"/><path class="cls-15" d="M1545.86,867a.52.52,0,0,1,.65.76c-5.36,8.2-8.34,17.23-10.19,26.69a35.4,35.4,0,0,0-.34,3.73c-.07.68.11,1.63-1,1.54-.87-.06-1.1-.93-1.07-1.63a20.09,20.09,0,0,1,.43-3.71c2-9.15,4.69-18,10-25.86C1545,867.6,1545.25,867.28,1545.86,867Z"/><path class="cls-14" d="M1261.21,883c-.63,0-.7-.06-.8-.14,1.24-.78,1.16-1.94.95-3-1.09-5.43-.72-10.58,3.12-15a16.81,16.81,0,0,1,2.88-2.41,23.33,23.33,0,0,0-2.38,2.75c-3.08,4.8-3.31,9.82-1.43,15.24C1264.3,882.68,1263.7,883.23,1261.21,883Z"/><path class="cls-15" d="M1316.11,909.83c-3.45-4.06-8.3-5.27-13.22-6.28-.15,0-1.94.19-.79.62,2,.64,3.75,1.1,5.45,1.79,4,1.65,7.4,4,8.34,8.65.91,4.51-1.14,8.2-3.3,11.8a47.86,47.86,0,0,1-12.31,13.26c-1.14.87-1.55,2.31-.32,1.79a46.52,46.52,0,0,0,12-10.32l1.39-1.58-.52.07.52-.07.27-.38c1.11-2,2.33-3.18,3.24-4.77C1319.81,919.22,1319,913.27,1316.11,909.83Zm-3.77,19.9.32-.07Z"/><path class="cls-14" d="M1331.67,857.67c-.37-.49-.74-1-.92-1.3a20.17,20.17,0,0,0-8-6.78c-11.26-5.78-23.18-6.43-35.43-4.4a56.29,56.29,0,0,0-18,5,32.85,32.85,0,0,0-11.92,8.47c-5.88,6.9-5.33,16.83,1.24,22.59.74-.55.43-1.23.31-1.94-1.43-8.43,2.45-14.41,8.91-19.18.65-.47,1.83-.24,1.21.86a54.36,54.36,0,0,1,42.56-9.76c5.26.95,10.14,3,12.46,8.53,1.56,4,.73,7.91-.66,11.73-2.2,6-6.21,10.78-10.84,15a70.17,70.17,0,0,1-14,10.16,72.09,72.09,0,0,1-10.19,5.42,132.12,132.12,0,0,1,3.42-15.14c1-3.88,2.17-7.72,3.26-11.58a28,28,0,0,0,1.23-10.28l-.45-.57c-1.43-2.17-3.78-2.81-6-3.62l-3.15-.28c-1.27-.11-.82.76-.79,1.39.66,2.79.06,5.54-.55,8.22-2.39,10.43-4.95,20.83-7.42,31.25-1.09,4.61-1.07,4.62-5.74,5.17-2.93.34-3.48,1.42-2.12,4.09a5.08,5.08,0,0,0,2.41,2.43c2.85,1.23,3,3.39,2.41,6a9.82,9.82,0,0,0-.27,1.86c-.47,9.2-2.32,18.74,6.18,25.79,7.28,1.43,13.44-1.17,19.17-5.32-1.12.52-.81-1,.32-1.79a43.21,43.21,0,0,0,12.31-13.26c2.16-3.6,4.21-7.29,3.3-11.8-.94-4.69-4.32-7-8.34-8.65-1.7-.69-3.5-1.15-5.45-1.79-1.15-.42.64-.65.79-.62,4.92,1,9.77,2.22,13.22,6.28,2.92,3.44,3.49,9.43.54,14.62a90,90,0,0,1-8.68,11c9.83-9.79,13.38-16.49,11.44-24.13l0,0a11.59,11.59,0,0,0-2.32-3.19,26,26,0,0,0-11.61-5.06c3.71-2.09,8.56-4.18,11.62-7.08-1,.6-1.5-.41-.77-1,1.42-1.16,8.14-8.62,9.64-11.49,4.17-8,6.1-16,1.46-24.5-2.43-4.46-6.34-7.14-10.75-9.29a36.8,36.8,0,0,0-11.77-3.43,2,2,0,0,1,2-.5c7.08,1.36,13.86,3.38,19.28,8.54,5.74,5.45,6.45,12.27,5.27,19.51a30.08,30.08,0,0,1-5.53,12.37,107.59,107.59,0,0,1-7.07,8.3c1.78-1.61,6.13-5.68,6.13-5.67C1333.05,879.67,1336.56,869.56,1331.67,857.67Zm-42.32,25.55c.9-3.27,1.91-6.51,2.63-9.82,1.44-6.62.93-7.71-5-11.37,5.47,0,8.44,3.42,7.52,8.28-1.45,7.64-4.09,15-5.87,22.54-.55,2.35-1,4.73-1.55,7.06-.3,1.19-.31,2.78-2.44,2.82A183.51,183.51,0,0,1,1289.35,883.22Zm-9,56.72c-1.11-4-.27-8,0-12,.35-4.51,1.25-9,2-13.47.13-.86.22-2.14,1.37-1.93,1.4.26.44,1.51.35,2.23-.77,6.27-2,12.49-2.12,18.83-.07,3.12-.14,6.24,1.85,9.11C1281,943.38,1280.76,941.57,1280.31,939.94Zm22.85-30.82c4.63.43,6.73,2.7,6.54,7a14.94,14.94,0,0,1-2.27,6.79c-4.06,7.06-9.14,13.2-16.31,17.36a18.85,18.85,0,0,1-2.06,1.14c-3.11,1.25-4.58.44-5-2.86-.77-5.81,0-11.58.75-17.33.3-2.39.89-4.75,1.09-7.14a3.25,3.25,0,0,1,3-3.3C1293.58,909.75,1298.28,908.66,1303.16,909.12Z"/><path class="cls-38" d="M1317.37,895.83l.79-.66Z"/><path class="cls-39" d="M1488.77,946.12v0h0Z"/><polygon class="cls-39" points="1325.96 953.66 1325.96 953.66 1325.96 953.66 1325.96 953.66"/><path class="cls-39" d="M1432.85,922l0,0h0Z"/><path class="cls-39" d="M1331.37,897.45h.07l0-.09Z"/><path class="cls-39" d="M1331.87,937.07a0,0,0,0,0,0,0l0,0Z"/><path class="cls-39" d="M1338.32,888.23h0v0Z"/><path class="cls-14" d="M1517.94,890.51A51.82,51.82,0,0,0,1528.62,868a32.82,32.82,0,0,0,.28-4.45c-.4,0-.38-.32-.42-.6-3.51-3.85-4.31-4-9.2-1.9-5.38,2.33-10.82,4.42-16.68,5.19-3.34.31-5.67.73-8.14-.76-1,1.79-1.16,5.18,0,6.67,1.63,2.15,1.25,4.09.41,6.23a107,107,0,0,1-9.73,25.38,24.7,24.7,0,0,1-2.42,3.52c-.6.74-1.34,1.65-2.46,1.2s-1.07-1.61-1-2.56a43.33,43.33,0,0,1,2.26-11q2.26-7.28,4.71-14.49a22.48,22.48,0,0,0,1.38-9.71c-.74-.06-.83-.84-1.3-1.2-3.72-2.91-8.17-4.63-12,.46-1.72,2.26-3.37,4.58-5,6.88-2.45,4.6-5.15,9.08-6.91,14h0c-.42.26-.32,1.09-1.19,1,1.44-6.63,4.52-13,2.85-20.08-2.65-3.19-6.11-3.07-9.72-2.42-1,.18-1,.53-.75,1.44,1.71,7.11.12,13.87-2.42,20.49a90.22,90.22,0,0,1-7.81,17,14.42,14.42,0,0,1-1.21,1.76c-.83,1-1.66,2.65-3.07,2.06s-.67-2.24-.5-3.42c1.2-8.76,3.58-17.29,5.28-26a29.42,29.42,0,0,0,.33-7.72c-1.44-3.3-7.9-1.88-8.66-1.89-1.19,0-.87.85-.87,1.49a9.43,9.43,0,0,1-1,4.91,9,9,0,0,0-5.62-3.73c-4.37-.92-7.59,1-10.37,4.08-3.52,3.88-5.5,8.66-7.64,13.34a94.4,94.4,0,0,1-9.07,21.69,26.94,26.94,0,0,1-2.3,3.61c-1.17,1.47-2.19,4.25-4.22,3.33-1.87-.85-.81-3.59-.48-5.42,1.56-8.46,4.37-16.57,7.12-24.69.9-2.65,1.63-5.28,1.2-8.11-4.34-4.7-9.85-5.43-14,.55-1.45,2.12-3,4.22-4.43,6.32q-1.68,3.12-3.38,6.24c-.86,2-4.4,9.1-4.61,9.64-.94.12-.64-.34-.51-.91.8-3.47,1.51-7,2.31-10.42a27.49,27.49,0,0,0,.41-9.82,7.23,7.23,0,0,0-7.43-2.83,2.6,2.6,0,0,1-2.29.4c-1.1-.09-1.77.23-1.4,1.5a6.37,6.37,0,0,1,0,3.41c-1.2,4.79-6.28,7.47-12,6.23a2.13,2.13,0,0,1-.57-.31c-3.26-.76-5.22-2.94-6.41-6l.09,0-.44-.46c-1.11-1.45-2.58-.49-3.89-.56,0,.14,0,.29,0,.44l-1.79,0a5.65,5.65,0,0,0-3.53,1.18,3.93,3.93,0,0,1-.7.71c-2.48,2.23-4,5.15-5.77,7.9,0,.29,0,.59-.42.6a96.57,96.57,0,0,0-5.17,20.19,66.07,66.07,0,0,0-.21,11.25,12.27,12.27,0,0,0,4.71,7.37c.4.31.65.54,1.11.84a9.84,9.84,0,0,0,10.45,0s.85-.57,1.57-1.17a16.11,16.11,0,0,0,1.42-1.38c5.22-6,7.55-13.29,9.55-20.72a42.83,42.83,0,0,0,1.74-10.84,2.32,2.32,0,0,1,1.66-2.36c4.65-2.14,6.42-3.73,9.57-8.54a40.36,40.36,0,0,1-1.07,8.5c-.53,2.77-1.14,5.34-1.69,8.19-.5,2.62-1.31,5.32-1.85,8s-1.24,5.4-1.88,8.1c-.07,3.24-.21,6.52,3.18,8.47,7.12-.43,7-.45,8.75-7.59a120,120,0,0,1,15.66-36.39c.9-1,1.76-2,2.72-2.92.63-.6,1.52-1.35,2.33-.74s0,1.44-.3,2.13c-2.92,7.55-6.11,15-8.44,22.75a28.11,28.11,0,0,0-1.46,11.83c.43,2.78,2.26,4.66,4.19,6.48,5.43,2,8.5-1,11-5.18,2-3.33,3.86-6.7,6.19-10.76-.15,5.21,1.67,8.81,5.11,11.6.8.08,1,.9,1.53,1.28,4.86.64,7.9-2,10.29-5.75,2.06-3.2,4-6.47,6.23-10.09.69,4.59.46,9.16,4.53,12,3.45.76,5.81-.94,7.77-3.5,3.53-4.58,5.73-9.85,7.9-15.15.45-1.1.55-2.43,2.2-3.61-.73,3.58-1.4,6.64-2,9.71a37.57,37.57,0,0,0-.78,5.56c-.1,3.26,1.43,4.74,4.69,4.85,4.75.17,5.14-.43,6-5.07a103.42,103.42,0,0,1,15.9-38.59c1.1-1.62,2.33-3.46,5.12-2.91-2.33,6.13-4.66,12.1-6.86,18.11s-4,11.86-3.48,18.27c.67,1.64,1.26,3.32,2.67,4.53l1.14.85-.06-.05c6.5,1.84,8.58,1.18,12.29-4.62,5.75-9,8.94-19,11.34-29.29.4-1.73.33-3.93,1.39-5.05s3.14.16,4.79.08a32.06,32.06,0,0,0,17.88-6.38c.49-.36,1-.75,2-1.56-1.55,6.44-4.91,10.94-9.2,14.88a27,27,0,0,1-9.82,6.69,4.25,4.25,0,0,0-.43.31c-1.19,1.09-3.71-.13-4.11,2.18-.54,3.09-.91,6.23,1.36,8.94l.89.51a17.67,17.67,0,0,0,5.84-.42c6.29-1,10.56,1.67,11.81,7.19.87,6.79-1.92,12.34-5.92,17.48-.47.52-.93,1-1.4,1.58-3.41,4-7.43,7.07-12.75,8.05a9.93,9.93,0,0,1-5.35.36c-2.84-.37-4-2.75-3.11-5.4a17.57,17.57,0,0,1,2.42-4.13c-2.27,1.78-3.92,3.61-4.26,5.6-.39,2.23.38,3.26,2.94,4.75-3.5.58-5.85-1.6-5-4.85.87-3.41,2.49-4.76,5.29-6.6.68-.44,2-.34,1.33.78a34.45,34.45,0,0,1,9.52-5.44l.93-.26c1.1-.08,2.34,0,2.11-1.72-1.19-1.85-11.72.12-14.29.67a92.48,92.48,0,0,1-10.39,3.11c-1.53.5-3.05,1-4.59,1.48-33.43,10-66.77,20.46-101.4,25.7-13.13,2-26.33,3.66-39.64,1.43a39,39,0,0,1-14.11-4.81c-.78-.47-2.14-1.61-3.22-.31-.86,1,.56,2.46,1.28,3.19,1.31,1.34,6.19,4,6.9,4.21,15.07,6.46,30.43,6.4,46.24,4.82,38.63-3.84,75.34-14.92,110.92-30.08a3.82,3.82,0,0,1,2.54-.65,19.29,19.29,0,0,0-2.31,10.77c.82,2.82,1.86,5.53,4.21,7.5a3.53,3.53,0,0,0,.78.41c7.7,2.76,15.74.54,22.29-3.75-1.65.63-1.64-.51-.69-1.33,7.84-6.79,13-15.34,13.66-25.54.57-8.47-4.18-16.49-14.56-17.12-.48,0-1.06,0-1.33-.45-.1-.15-.22-1.1,1-.75,2,.51,3.06.75,4.58,1.07a14,14,0,0,1,11.57,13.55c.52,8.75-2.12,16.06-7.49,23.25a62.66,62.66,0,0,1-6.49,7.19,17.26,17.26,0,0,0,5.34-4.57c8.75-9.54,13.06-20.26,9-33.25-.27-.48-.44-.91-.61-1.16a12.33,12.33,0,0,0-2.41-2.56,16,16,0,0,0-9.34-3.47c-1.5,0-1.22-.52-.76-1C1512.94,896,1515,894.45,1517.94,890.51Zm-172.06-2.38c3,4.79,3.06,4.77,8.28,7.29a10,10,0,0,1-10.5-8.29A2.21,2.21,0,0,1,1345.88,888.13Zm-11.65,44.32c-1,.37-1.41-.51-1.75-1.24-.94-2-.61-4.21-.73-6.35.31-8.68,2.08-17,6.62-24.52.35-.59.48-1.87,1.54-1.33.82.43.13,1.31-.19,1.89-4,7.09-5.42,14.87-6.17,22.83a22.17,22.17,0,0,0,.86,6.86C1334.55,931.23,1335.22,932.08,1334.23,932.45Zm3.39-1c-1.3-.35-1.41-1.7-1.54-2.86a46.67,46.67,0,0,1,1.19-14.9c1.21-5.68,2.79-11.25,6.12-16.36,1.08,1.23,1.67,2.68,2.94,3.09,3,1,2.69,2.93,2.26,5.4A121.17,121.17,0,0,1,1344,924a17,17,0,0,1-3.36,6C1339.82,930.89,1338.83,931.76,1337.62,931.45Zm17.25-26.88a82.54,82.54,0,0,1-2.32,12.06,65.69,65.69,0,0,1-6.5,15.49,20.65,20.65,0,0,1-3.17,3.67c-1,.81-1.6.38-1.36.08,6.55-8.12,9.16-17.8,11-27.8.22-1.22.22-2.47.32-3.71.07-.9,0-2.07,1.26-2S1355,903.79,1354.87,904.57Zm21.61-15.91c.18,7-1.37,10.44-3.51,18.11.65-3,1.19-5.93,1.54-8.93.28-2.38.73-4.77.78-7.2a7.06,7.06,0,0,0-4.61-7A5.58,5.58,0,0,1,1376.48,888.66Zm11.68-.11a32.87,32.87,0,0,0-4.85,7.19c-5.93,10.67-9.24,18.07-11.7,30.08-.09.44-.17.88-.26,1.32-.14.7-.51,1.17-1.29,1s-.56-.8-.44-1.31c.75-3.21.54-2.48,1.46-5.65a104.41,104.41,0,0,1,4.54-12.59c.24-.55,6.44-13,6.83-13.6,1.75-2.75,2.45-5.06,4.78-7.27C1387.73,887.12,1389.07,887.37,1388.16,888.55Zm3.53,33.37c.08.63-.09,1.07-.79,1.08a1,1,0,0,1-1-1,18,18,0,0,1,.21-4.8c1.67-8.45,4.47-16.56,7.18-24.7,2.21-6.63.87-10-4-11.51,5.55,0,8.39,3.61,6.87,8.4-2.49,7.84-5.31,15.57-7.16,23.6C1392.26,915.91,1391.34,918.83,1391.69,921.92Zm38.08-41.11c-1.35-2.07-3.35-3.15-5.91-4.12C1428.31,876.34,1430.77,878.13,1429.77,880.81Zm2,8.54c-1.12,10.88-7.2,19.14-14.16,26.94-.5.56-1.17,1.3-2.08.82-.76-.41-.5-1.28-.5-2,0-4.17,1.2-8.13,2.39-12a73.19,73.19,0,0,1,7-16.47c1.12-1.41-.08-1.41-.08-1.41s-2,2.67-2.29,3.25a71.54,71.54,0,0,0-9,28.12c-.06.63.16,1.37-.68,1.48-1.05.14-1.05-.74-1.09-1.45a19.81,19.81,0,0,1,.53-5.58,79.53,79.53,0,0,1,8.28-22.27,12.67,12.67,0,0,1,2.55-3.09c.72-.66,1.46-.39.8.77-.09.16,1.2-.53,1.31-.32,1.29-1.36,2.57-3.08,4.74-2.06S1432,887.12,1431.78,889.35Zm4.78,22c-.07.78,0,1.86-1.1,1.77s-1.1-1.32-1-2.13c.58-3.61,1.2-7.21,1.93-10.78,1.07-5.24,2.24-10.47,3.4-15.69.9-4.1,2-7.34-1.35-10.62,3.71,1.17,4.82,2.66,3.77,7.8-1.74,8.56-3.56,17.11-5.3,25.67C1436.68,908.66,1436.69,910,1436.56,911.34Zm25.87-35.3a26.86,26.86,0,0,1-4.92,16.28c.56-2.21,1.16-4.42,1.68-6.64s.92-4.18,1.31-6.28c.89-4.81-.37-7.21-4.84-9.32C1460.35,869.68,1462.27,871.44,1462.43,876Zm-5.09,18.12-.17,0,.1-.17Zm11.82-11.58c-5.72,10.4-10.26,21.24-12.35,33-.17,1,.16,3-1.2,2.85-1.54-.21-.87-2.16-.68-3.23,1.17-7,3.73-13.61,6.39-20.17.24-.59,2.7-6,3-6.69,2.06-4.08,4-8.22,7-11.75.37-.45.59-1.16,1.81-.8C1471.79,878.11,1470.41,880.31,1469.16,882.58Zm8.45,25.77c.09.6.07,1.11-.64,1.21a1.21,1.21,0,0,1-1.29-.76,5.38,5.38,0,0,1-.19-3.41c1.07-6.92,3.46-13.47,5.64-20.09.61-1.86,1.27-3.72,1.83-5.6,2-6.75,1.35-8.33-5.16-11.77,5.87-.15,8.87,3.23,7.8,8.39-1.4,6.75-4.37,13-6,19.71C1478.54,900.07,1476.93,904,1477.61,908.35Zm-152.2,42.45c-1.09-.31-3.63-.69-4.76-1.65s.61-1.23,1.39-.86c8.75,4.11,18.1,4.51,27.53,4.38.45,0,.9,0,1.34,0a3.88,3.88,0,0,1,.83.36C1342.63,953.41,1333.93,953.25,1325.41,950.8ZM1511,895.14l0,0A56.18,56.18,0,0,0,1523.89,873a41.23,41.23,0,0,0,1.21-4.93c1.11-6.21-1.58-4.85-3.31-6.91,2.78-.42,4.88,1.52,5.08,4.37.35,5-1.54,9.45-3.47,13.88-1.25,2.87-8.48,14-10.65,15.41C1512.71,894.83,1511.37,895.11,1511,895.14Z"/><path class="cls-39" d="M1528.91,863.46v.06h.06Z"/></g></g></svg>