<svg xmlns="http://www.w3.org/2000/svg" xmlns:xlink="http://www.w3.org/1999/xlink" viewBox="0 0 1147.52 1148.23"><defs><style>.cls-1{fill:none;}.cls-2{fill:#682c1a;}.cls-3{fill:#0071bc;}.cls-4{clip-path:url(#clip-path);}.cls-5{fill:url(#radial-gradient);}.cls-6{fill:#ffd011;}.cls-7{fill:url(#linear-gradient);}.cls-8{fill:#6ce87d;}.cls-9{fill:#39b54a;}</style><clipPath id="clip-path"><circle class="cls-1" cx="575.25" cy="571.45" r="440.49"/></clipPath><radialGradient id="radial-gradient" cx="573.77" cy="571.85" r="451.43" gradientUnits="userSpaceOnUse"><stop offset="0" stop-color="#fff"/><stop offset="0.38" stop-color="#fffffd"/><stop offset="0.52" stop-color="#fffdf6"/><stop offset="0.62" stop-color="#fffbeb"/><stop offset="0.7" stop-color="#fff7da"/><stop offset="0.77" stop-color="#fff2c4"/><stop offset="0.83" stop-color="#ffeca8"/><stop offset="0.88" stop-color="#ffe588"/><stop offset="0.93" stop-color="#ffdd62"/><stop offset="0.98" stop-color="#ffd439"/><stop offset="1" stop-color="#ffcf21"/></radialGradient><linearGradient id="linear-gradient" x1="584.13" y1="700.28" x2="584.13" y2="1054.6" gradientUnits="userSpaceOnUse"><stop offset="0" stop-color="#fff"/><stop offset="0" stop-color="#6ce87d"/><stop offset="0.14" stop-color="#66e076"/><stop offset="0.35" stop-color="#55c965"/><stop offset="0.61" stop-color="#39a548"/><stop offset="0.91" stop-color="#13731f"/><stop offset="1" stop-color="#076313"/></linearGradient></defs><title>Asset 1</title><g id="Layer_2" data-name="Layer 2"><g id="Layer_1-2" data-name="Layer 1"><path class="cls-2" d="M731.31,686c-1-15-2-30.08-3.18-45.11-.81-10.55-1.85-21.09-2.78-31.63-1.94-22-3.7-44-6-66a15.9,15.9,0,0,0-5-9.38c-10.19-9-21.32-16.57-34.7-20.07a63,63,0,0,0-26.47-1.1A88.07,88.07,0,0,1,638.65,514c-23-.1-46-.45-69.06-.69a52,52,0,0,0-6,.25c-10,1.11-19.9.91-29.63-2.08-8.42-2.59-17-2.31-25.51-.65a46.92,46.92,0,0,1-27.53-2.52c-7.47-3.13-14.79-6.66-22-10.29a18.12,18.12,0,0,1-9.76-12,10.42,10.42,0,0,0-4.43-6c-2.59-1.39-4.23,1.09-6.22,3.05-3.47,3.43-8.8,5.15-11.83,8.83-8.63,10.49-19.93,17.39-30.86,24.87-1.1.74-2.66,2-2.62,3,.15,4-.41,9,1.71,11.81,1.9,2.51,7.05,3.72,10.63,3.48a23.16,23.16,0,0,1,10.31,1.78c6.64,2.44,13.82,3.66,20.89,4.57,4.26.55,7.22,2,9.21,5.71,4,7.42,7.81,14.94,12.09,22.19,7,11.75,9.18,24.58,9.29,37.94.12,14.12,7.69,22.32,21.87,23.83a5.07,5.07,0,0,1,3.49,2.7,50.51,50.51,0,0,1,3.08,11c2.08,15.9,7.1,31.34,6.48,47.71-.31,8.31-3.49,14.33-9.36,19.53-1.43,1.26-2.77,2.62-4.15,3.94l.36,1.3c6.12,0,12.25.1,18.37-.11.82,0,1.78-1.54,2.34-2.55.9-1.63.85-4.06,3.87-3.55.25,0,1.27-2.23,1.26-3.41,0-2.9-.47-5.8-.7-8.7-1.39-17.45,4.32-33.84,7.54-50.6,1.22-6.32,2.71-12.59,3.72-18.94.61-3.85,2.4-5.47,6.16-4.71,6.14,1.23,12.22,2.81,18.4,3.77,11.62,1.82,23.27,3.58,35,4.82,6.39.67,12.89.15,19.34.32,6.82.18,13.39-.47,19.78-3.29,5.49-2.43,11.08-1.57,16.35,1.23,1.08.58,2.08,1.55,3.22,1.74,4.24.72,6.46,2.66,5.8,7.36-.12.85,1.73,2,2.67,3,.83-1.29,2.23-2.51,2.4-3.88.74-5.7.61-5.72,7.48-5a19.43,19.43,0,0,0,.09,4.76c.33,1.23,1.49,2.25,2.28,3.37.87-1.18,2.08-2.26,2.52-3.58s.09-2.88.09-4.33l1.24-.52c2.62,3.81,5.5,7.47,7.78,11.48,3.8,6.65,7.85,13.27,10.65,20.36,5.94,15.09,5.95,30.2-2.22,44.72-.51.9-1.53,1.51-2.1,2.38-.86,1.32-1.54,2.76-2.3,4.14a23.83,23.83,0,0,0,4.54,1.65,41.85,41.85,0,0,0,6.44.22c8.67,0,13.18-4.71,12.82-13.56-.64-15.55,1.47-30.86,3.17-46.25a74.81,74.81,0,0,0-1.62-23.22c-2.82-13.45-1.78-26.28,1.88-39.42,2.65-9.53,3.54-19.55,5.23-29.35a5,5,0,0,1,1.55-3.1c.71,4.86,1.69,9.71,2.07,14.6,1.51,19.12,3,38.25,4.08,57.4a30.52,30.52,0,0,1-2,13c-3.11,7.48-3.85,15.07-3.67,23,.15,6.27,0,12.55,0,18.93l3.77-1.15,4-10.4,1.57.38c.12,2.79.25,5.58.38,8.63,4.21-.88,2.41-4,2.65-6.19.26-2.4.06-4.85.92-7.39.37,3.63.73,7.26,1.1,10.88Z"/><path class="cls-3" d="M575.14.71C890.7.65,1147.47,257.93,1147.52,574.23c0,317.89-257.94,574.2-577.77,574C258.22,1148-.18,888.08,0,575.06.18,256.55,256.32.76,575.14.71ZM1109.35,574.3c.18-293.83-240.94-535.1-535.14-535.5-293.89-.4-536.85,241-535.78,534.71,1.1,300.21,237.11,534.7,535,536.25C869.2,1111.31,1109.17,870.3,1109.35,574.3Z"/><g class="cls-4"><circle class="cls-5" cx="573.77" cy="571.85" r="451.43"/><path class="cls-6" d="M1120.11,726.72c-80.56-10.84-103.91-22.52-181.94-33-.2-1.17,110.58-25,197.54-36.88Z"/><path class="cls-6" d="M642.77,0l105.4,23.05c-39.81,124.47-67.54,177.79-106.38,299.22C640.79,322.19,637.6,133.66,642.77,0Z"/><path class="cls-6" d="M408.32,26.81,513.72,3.9c5.18,132.46-.13,201.33,4.9,329.91C517.63,334.06,448.22,151.43,408.32,26.81Z"/><path class="cls-6" d="M958.07,140.29C882,238.65,765.69,375.94,764.82,375.49c47-114.95,61.12-177.46,109.7-296.18Z"/><path class="cls-6" d="M204.08,142.78l83.54-60.94c48.16,117.65,64.45,178.93,111.68,294.31C398.43,376.62,279.59,240.36,204.08,142.78Z"/><path class="cls-6" d="M69,323.74l47.67-82.43c79.09,87,109.27,132.79,186.4,217.6C302.48,459.63,163.55,383.44,69,323.74Z"/><path class="cls-6" d="M1037.18,241.34l47.87,82.34c-94.68,59.8-139.77,76.81-232.24,135.23C852.21,458.26,957.13,329.43,1037.18,241.34Z"/><path class="cls-6" d="M1126.17,446.77c4.12,28.62,7.89,54.84,12,83.19-94.22,20.53-131,20.37-223.75,40.57C914.05,569.63,1034.34,495.1,1126.17,446.77Z"/><path class="cls-6" d="M9.39,530c4.08-28.68,7.74-54.44,11.84-83.22,106.24,55.83,214.51,114.89,211.88,123.71C140.83,550.47,103.82,550.56,9.39,530Z"/><path class="cls-6" d="M38.66,726.69c-5.4-23.08-10.51-44.89-16.34-69.81,87.27,11.83,112,23.51,196.08,34.9C218.14,692.85,119.68,715.81,38.66,726.69Z"/><path class="cls-3" d="M388.58,393.59h-7.67c-8.67,3.22-16,7.93-21.28,16-1.4,2.12-5.8,3.21-8.79,3.16-5.36-.1-10.69-1.41-16-2.25a19.69,19.69,0,0,0-18.16,6.13v2.87c4.39,3.11,8.51,6.7,13.22,9.2,7.53,4,11.25,14.56,7.09,22.16-4.52,8.26-9.25,16.41-13.57,24.78a9.25,9.25,0,0,0-.74,6.65c4,10.51,20.67,22.89,33.19,11.47,7.54-6.86,17.1-2.87,25.83-3.13a1.22,1.22,0,0,1,.8.45c3.48,4.31,7.41,8.35,10.32,13,6.57,10.53,12.61,21.39,18.9,32.1,2.09,3.56,4.8,6.86,6.32,10.64,5.27,13.16,9.81,26.62,15.32,39.68,2.09,5,5.21,10.18,9.32,13.46,5.87,4.68,13.11,7.62,19.7,11.43a8.57,8.57,0,0,1,3.4,3.15,60,60,0,0,1,4.17,10.15c5.39,18.62,6.56,38.38,15.27,56.13a22,22,0,0,1,1.72,8.33c.35,6.17.41,12.36.42,18.55,0,2.34,0,4.9-.83,7-2.49,6.08-5.42,12-8.41,18.48l16.64-.78c-.42.38,0,.11.26-.26a12.89,12.89,0,0,0,1.22-2c6.15-13.58,9.4-27.74,7.41-42.66-1.45-10.75,1.07-20.43,6.44-29.85a36.79,36.79,0,0,1,1.24,3.78c1.51,7.35,2.15,15,4.7,21.95,2,5.53,2,10.34,1.26,16-1.43,11.07-4.37,21.37-10.32,30.8a20.4,20.4,0,0,0-1.19,3.12l17.82-1c1.77-5.82,3.94-12.41,5.77-19.1,2.1-7.69,4.26-15.38,5.72-23.2,1-5.54,3-12.12,1-16.79-6.32-15.24-5.16-30.62-3.26-46.11,1-7.87,4.31-9.52,12-7.75A61,61,0,0,0,553.7,621c15.6,1.19,31.2,2.65,46.83,3.16,17.62.57,35.17-.42,51.79-7.39a34.15,34.15,0,0,1,4.45-1.21c.86,2,1.42,3.71,2.24,5.26,4.62,8.76,10.49,17,19.55,20.95,6,2.64,8.64,5.38,8.44,11.83,0,1.78,2.66,4.86,4.42,5.11s4.29-2.08,5.55-3.91c1.38-2,1.53-4.84,2.53-7.17.45-1,1.93-2.61,2.46-2.44a5.5,5.5,0,0,1,2.9,2.67c1.28,2.55,1.81,5.54,3.39,7.85,1.25,1.83,3.61,2.92,5.48,4.34,1.12-1.86,2.74-3.58,3.27-5.59,1-3.85,1.82-7.63,6-10.23,5.22,10.14,5.51,20.94,3.17,30.5-2.66,10.84-7.23,21.1-8.57,32.57-1,8.68-5.27,17-8.22,25.87l15.75-1a28,28,0,0,0,2.11-3.76c2.72-6.59,4.83-13.47,8.09-19.77,3.75-7.22,7.86-13.56,8.23-22.61.34-8.15,5.39-16.17,8.68-24.11,3.44-8.28,7.27-16.41,11-24.75a11.86,11.86,0,0,1,1.42,3c1,4,1.33,8.19,2.62,12.08a53.94,53.94,0,0,1,1.57,30.17c-2.53,10.54-5.22,21-7.41,31.65-.85,4.13-1.65,7.91-4.69,11.14-1.75,1.85-2.63,4.52-4.07,7.15h18a12.06,12.06,0,0,0,1.36-2.14c5.32-12.26,10.75-24.46,15.79-36.82,2.13-5.24,4.21-10.72,4.89-16.27.87-7.07.25-14.32.42-21.49,0-.94.85-1.87,1.31-2.8-.46,4.74,1.52,8.34,5.37,10.06,1.85.83,4.75-.69,8.07-1.31-6.15-5-7.58-10.57-5.61-16.65a22.57,22.57,0,0,0,1.46-8.41c-.76-10-1.91-19.93-3-29.88-.72-6.49-2.18-13-2.35-19.45-.69-26-1-52.09-1.48-78.13-.34-19.24-2.24-38.25-8.14-56.7-6.65-20.83-20.52-33.51-44.28-30.36a382.48,382.48,0,0,1-46.31,3.71c-32.76.32-65.53-.08-98.28-.78-28.13-.6-56.2-1.08-84.33,1-22.92,1.72-45.94,2.07-68.92,3-2.68.11-5,.17-5.37-3.65-.64-6.4-2.8-8.82-9.11-9.76a64.86,64.86,0,0,0-12.85-.26c-5.91.28-15.91-4.25-17.29-9C399.93,399.27,395.4,395.38,388.58,393.59Z"/><path class="cls-7" d="M1032,1054.6H136.21V780.71s111.31-80.43,435.24-80.43S1032,780.71,1032,780.71Z"/></g><path class="cls-8" d="M393.36,677.19l-16.92,27c2-18.32,2.25-38.6,3-46.2-4.1,13.12-8.2,26.24-12.61,40.33-4.34-12-8.11-22.51-11.89-33-1,.23,2.62,39.07,2.62,39.07L342.75,681c-1,.46,4,17.59,7.36,27.64l-10-6.65c1.5,5.49,2.6,9.53,3.93,14.44l41-4.57S390.17,690.82,393.36,677.19Z"/><path class="cls-9" d="M71.16,567.15c2.16-.78,1.83-2.68,1.93-4.35.17-3.1.27-6.21.4-9.52a12,12,0,0,1,2.46-.46c5.64.18,11.28.41,16.91.65,3.83.16,4.37.8,4.15,4.48-.25,4.37-.44,8.75-.65,13.13-.18,3.7-.45,4-4.09,4.1-6.27.07-12.54,0-18.81.06a13.33,13.33,0,0,0-2.3.39Z"/><path class="cls-9" d="M1080.93,586.92c0,2.82.09,5.64,0,8.46s-.83,3.37-3.42,3.24c-5.47-.27-10.93-.56-16.4-.84-3.46-.17-3.85-.46-3.87-3.79,0-5.17.12-10.35.1-15.52,0-2.37,1-3.4,3.37-3.38q8.46.07,16.93,0c2.39,0,3.41,1,3.35,3.4-.07,2.82,0,5.64,0,8.46Z"/><path class="cls-9" d="M958.42,905l-17.86-15.51c4.53-5.49,8.78-10.62,13-15.66,3.43,1.2,13.92,9.06,18.91,14.15A187.48,187.48,0,0,1,958.42,905Z"/><path class="cls-9" d="M150,354.89,128.72,344l10.76-19.81,20.62,11.88Z"/><path class="cls-9" d="M357.7,1003l19.12,9.23c-3.38,7.39-6.52,14.28-9.91,21.7l-20.25-9.79C350.41,1017,353.91,1010.3,357.7,1003Z"/><path class="cls-9" d="M305.15,1000.11,318,980.18l18.21,11-11.77,20.58C317.76,1008.33,311.75,1004.32,305.15,1000.11Z"/><path class="cls-9" d="M1014.5,774.3c2.94-6.85,5.58-13,8.45-19.64l22,8.82-8.84,20.72Z"/><path class="cls-9" d="M734.13,121.1c2.65-7.64,5.08-14.68,7.69-22.2,7.22,1.94,13.76,4.7,20.81,7.52-2.32,7.55-5.53,14.43-8.58,22.11Z"/><path class="cls-9" d="M298.51,183.71,285.16,165.1c3-3.64,13.44-10.83,18.38-12.65l12.17,18.68c-2.16,3.25-5.52,4.46-8.23,6.47S301.84,181.46,298.51,183.71Z"/><path class="cls-9" d="M180.49,886.45a154.62,154.62,0,0,1-13.63-17.86l19-13.57c4.75,5.42,8.51,11.08,13,16.88Z"/><path class="cls-9" d="M108.52,762.52c-2.64-7.11-5.13-13.79-7.79-21,2.25-.82,4-1.46,5.69-2.06,4.58-1.61,9.19-3.14,13.75-4.82,2-.75,3.34-.27,4.09,1.74,1.81,4.84,3.59,9.69,5.44,14.52q1.05,2.73-1.57,3.78C121.76,757.28,115.38,759.79,108.52,762.52Z"/><path class="cls-9" d="M195,246l18,15.57-13.55,16.48-18.8-14.75Z"/><path class="cls-9" d="M1043.67,460.35l-5.45-20.08c7.18-3.33,14.65-4.77,22.36-7.1a143.63,143.63,0,0,1,5.84,21.52Z"/><path class="cls-9" d="M110.1,689.87c1.93,7.08,3.72,13.65,5.62,20.59l-22.81,6.68c-1.84-6.75-3.56-12.89-5.16-19.07-.5-1.89.62-2.93,2.39-3.36Z"/><path class="cls-9" d="M130.76,396.51l-22-8.84c3-7.08,5.81-13.59,8.76-20.49,2.39,1,4.25,1.69,6.06,2.51,4.28,1.92,8.53,3.9,12.8,5.85,1.6.73,2.7,1.79,1.91,3.66C135.91,384.78,133.45,390.33,130.76,396.51Z"/><path class="cls-9" d="M848.33,150.24l-12.78,20c-3.08-1.84-6-3.55-8.86-5.28s-5.85-3.56-9.37-5.7l11.45-20c4.06.62,6.73,3.21,9.8,4.93S844.67,148,848.33,150.24Z"/><path class="cls-9" d="M161.36,816.63l11,18c-6.53,4.37-12.9,8.69-20.13,12.83l-11.42-18.69C147.56,824.16,154.25,820.59,161.36,816.63Z"/><path class="cls-9" d="M690.22,108.34c1.82-7.37,3.47-14.17,5.19-21a2.18,2.18,0,0,1,2.9-1.68c6.16,1.63,12.3,3.32,19.05,5.15l-6.53,22.86Z"/><path class="cls-9" d="M869.59,164.5l17.77,13.32c-4.58,6.69-9.53,12.45-14.52,18.87L855.74,184C860.33,177.52,864.74,171.33,869.59,164.5Z"/><path class="cls-9" d="M122.35,419.41c-2.25,6.92-4.34,13.38-6.58,20.28l-22.45-6.5c.76-2.93,1.33-5.46,2.09-7.94,1.1-3.58,2.32-7.13,3.52-10.69.49-1.44,1.32-2.65,3.09-2.06C108.65,414.71,115.26,417,122.35,419.41Z"/><path class="cls-9" d="M172.84,315.29,152.9,302.44l12.49-18.69,19.42,13.81Z"/><path class="cls-9" d="M324.9,138.38l19.6-10.77c3.72,7.13,7.21,13.83,11,21.12L337,159Z"/><path class="cls-9" d="M283.88,985.89l-17.94-13.48c5.06-6.44,9.73-12.41,14.7-18.75l17.12,12.74Z"/><path class="cls-9" d="M806.72,126.37l-11,21.14-19.06-9.37c3.35-7.35,6.49-14.26,9.89-21.71Z"/><path class="cls-9" d="M993.49,815l10.27-18.69,21.15,10.85c-3.65,6.7-7,13-10.76,19.76Z"/><path class="cls-9" d="M411.51,1051.92l-21-7.85,8.85-22.13,19.94,7.41C416.71,1036.8,414.25,1044,411.51,1051.92Z"/><path class="cls-9" d="M507.57,1050.85c-.16,8-1.77,15.28-2.92,23.22-2.13-.19-3.91-.26-5.65-.53-4.47-.68-8.92-1.48-13.39-2.15-1.94-.29-2.84-1.37-2.49-3.22,1.26-6.71,2.63-13.4,4.07-20.68Z"/><path class="cls-9" d="M575.4,83.41c0,2.65.06,5.31,0,8-.1,3.16-.44,3.55-3.5,3.63-4.69.13-9.38,0-14.06.15-2.31.06-3.59-.89-3.72-3.18-.24-4-.46-8.1-.6-12.15-.31-9.39-.69-8.32,8.09-8.45,3.28,0,6.56-.18,9.84-.15s3.82.44,3.93,3.74c.09,2.81,0,5.62,0,8.44Z"/><path class="cls-9" d="M1071.7,671.5c-.33,2.23-.5,3.9-.85,5.53-.93,4.44-2,8.86-2.89,13.3-.39,1.85-1.42,2.89-3.28,2.46-6.68-1.54-13.32-3.21-20.35-4.91,1.31-6.35,2.5-12.29,3.77-18.22.4-1.87,1.77-2.5,3.57-2.15C1058.09,668.77,1064.51,670.07,1071.7,671.5Z"/><path class="cls-9" d="M479.88,80.31c1.5,7.58,2.82,14.16,4.08,20.74.29,1.51-.07,2.9-1.84,3.28-5.93,1.28-11.86,2.51-18.23,3.85-.61-2.13-1.16-3.88-1.6-5.66-1.16-4.71-2.26-9.43-3.41-14.15-.36-1.46-.58-3.11,1.18-3.55C466.4,83.25,472.79,81.9,479.88,80.31Z"/><path class="cls-9" d="M1038,711.45c7,2.07,13.6,4,20.14,5.93,1.88.56,2.27,1.84,1.67,3.67q-2.55,7.77-5,15.59c-.66,2.1-1.87,2.62-3.93,1.87-5.57-2-11.2-3.85-16.74-6-.9-.34-2.18-1.91-2-2.55C1033.9,723.9,1035.92,717.89,1038,711.45Z"/><path class="cls-9" d="M128.38,806.1c-3.3-6.83-6.38-13.21-9.67-20,2.72-1.34,4.91-2.46,7.14-3.5,3.83-1.78,7.71-3.43,11.51-5.28,2.21-1.08,3.45-.46,4.43,1.67,2.1,4.54,4.29,9,6.5,13.53.83,1.68.69,3-1.06,3.93C141.15,799.59,135.05,802.69,128.38,806.1Z"/><path class="cls-9" d="M1025.25,344.2l9.71,19.7c-6.94,4.08-14.07,6.69-21.41,10.25l-9.39-18.77C1010.86,351.11,1017.76,348,1025.25,344.2Z"/><path class="cls-9" d="M1030.65,416.42c-2.57-6.75-4.89-12.85-7.41-19.45,6.9-3.87,14.29-6.1,21.92-9.31,2.68,7.13,5.18,13.78,7.9,21Z"/><path class="cls-9" d="M973.44,263.55l13.45,18-19.23,13.73c-4.62-5.47-8.4-11.12-13-16.85Z"/><path class="cls-9" d="M109.58,463.36c-1.46,6.69-2.74,12.48-4,18.27a2.43,2.43,0,0,1-3.08,2.13c-6.73-1.28-13.44-2.65-20.73-4.1,1.41-6.64,2.71-12.88,4.08-19.1A2.47,2.47,0,0,1,89,458.45C95.7,460,102.36,461.62,109.58,463.36Z"/><path class="cls-9" d="M855,967.21l13.82,19.35C862.89,991,857,994.89,850.41,999c-4.6-6.35-8.52-12.83-12.84-19.87Z"/><path class="cls-9" d="M442.62,1036.81l20.47,5.44-5.39,22.8c-7.45-1-14.13-3.37-21.63-5.4C438.28,1051.93,440.4,1044.55,442.62,1036.81Z"/><path class="cls-9" d="M669,1047.08c6.68-1.48,12.45-2.8,18.24-4,1.59-.33,2.66.5,3.07,2.17,1.46,5.92,3,11.83,4.44,17.75.5,2-.72,3-2.39,3.34-6.06,1.38-12.15,2.66-18.87,4.11C672,1062.63,670.57,1055.21,669,1047.08Z"/><path class="cls-9" d="M808.94,1023.26l-11-21.11,18.19-10a35.23,35.23,0,0,1,2.36,3.15c2.79,4.71,5.52,9.46,8.27,14.19.94,1.63,1.48,3.26-.61,4.41C820.58,1017,815,1020,808.94,1023.26Z"/><path class="cls-9" d="M508.59,99.12c-1-7.27-2.13-14.72-3.25-22.42,7.4-2.24,14.39-2.24,21.6-3,.45,2.29,1,4.22,1.17,6.19.48,4.65.93,9.32,1.15,14,.13,2.87-.68,3.61-3.43,3.95-5.09.63-10.2,1.21-15.3,1.78A7.73,7.73,0,0,1,508.59,99.12Z"/><path class="cls-9" d="M229.58,940.93l16.5-17,15.81,14.17-15.65,18Z"/><path class="cls-9" d="M733.51,1029.8c2.62,7.42,5.09,14.45,7.54,21.39-3.13,2.56-15.73,6.8-21.11,7.07-.7-2.23-1.44-4.57-2.15-6.93-1.21-4-2.34-8.12-3.61-12.15-.55-1.74-.52-3.11,1.48-3.74C721.44,1033.6,727.23,1031.79,733.51,1029.8Z"/><path class="cls-9" d="M981.21,315.56,1001,302.8c4.56,6,7.85,12.33,12,18.88l-20.44,11.95c-2-3.15-3.82-6-5.6-8.82S983.34,319,981.21,315.56Z"/><path class="cls-9" d="M279,198.36l-16.24,13.51c-5.53-5.6-10.22-11.52-15.29-17.32a15.52,15.52,0,0,1,1.87-2.49c4-3.44,8.15-6.8,12.23-10.21,1.31-1.09,2.72-1.86,4.05-.21C270,187.07,274.35,192.55,279,198.36Z"/><path class="cls-9" d="M980.78,835.83l19.74,12.76c-3.67,6.71-8,12.35-12.4,18.7l-19.3-13.74Z"/><path class="cls-9" d="M906.39,957.22l-16.9,13.94c-5.45-6.13-10-12.17-14.78-18.64l16.11-13.39C896.17,944.88,901.16,950.53,906.39,957.22Z"/><path class="cls-9" d="M75.09,526c.81-6.83,1.6-13.45,2.44-20.5,8,.06,15.44,1.54,23.43,3l-2.2,19.59C94.53,529.55,80.45,528.35,75.09,526Z"/><path class="cls-9" d="M1072.06,480c1.44,7.26,3.16,14,3.23,21.58-3,.51-5.76,1-8.49,1.41-3.71.57-7.41,1.12-11.13,1.6-1.67.21-3.36-.09-3.7-2-1.08-6-2-11.95-3-18.3C1056.8,482.61,1064.13,480.78,1072.06,480Z"/><path class="cls-9" d="M907.3,194.23,924,209.35l-16.33,17c-2.07-1.73-3.87-3.14-5.58-4.65-2.69-2.39-5.33-4.84-8-7.27-1.27-1.15-2.12-2.43-.74-4C897.79,205.18,902.29,200,907.3,194.23Z"/><path class="cls-9" d="M396.93,129.68c-6.76,2.94-12.86,5.58-19.34,8.38-1.38-2.85-2.62-5.33-3.79-7.84-1.65-3.54-3.23-7.11-4.89-10.64-.74-1.57-1.13-3.11.78-4,5.41-2.44,10.86-4.78,16.32-7.11,1.42-.61,2.43.09,3,1.43C391.55,116.26,394.09,122.61,396.93,129.68Z"/><path class="cls-9" d="M756.55,1021.19l19.43-8.41,9.72,21.32c-6.46,3.81-13.06,6.05-20,9.09C762.17,1036.14,759.77,1029,756.55,1021.19Z"/><path class="cls-9" d="M939,259.35l-14.21-15.51L942,227.42l15,16.33A229,229,0,0,1,939,259.35Z"/><path class="cls-9" d="M578.1,1068.05c0-3,0-5.94,0-8.92,0-2.11,1-3.16,3.08-3.24,4.69-.18,9.37-.37,14.06-.62,2.41-.14,3.91.58,4,3.29.22,5.77.53,11.54.77,17.32.08,1.83-.7,3-2.67,3.1l-15.91.88c-2.39.13-3.43-1-3.36-3.36.07-2.81,0-5.63,0-8.45Z"/><path class="cls-9" d="M433.16,92.48c2.93,6.9,4.4,14.36,7,22.1l-20.31,6.55c-2.56-7.49-5-14.53-7.34-21.43C415.51,97.17,427.26,93.09,433.16,92.48Z"/><path class="cls-9" d="M648.76,76.14c7,1.13,13.24,2.11,19.51,3.21a2.43,2.43,0,0,1,2.05,3.15c-1.31,6.71-2.65,13.42-4.06,20.59-6.14-1-12-1.91-17.78-2.9-1.73-.29-2.89-1.27-2.62-3.23C646.78,90.2,647.74,83.44,648.76,76.14Z"/><path class="cls-9" d="M1079,527.24c.42,6.92.84,13.41,1.18,19.9.09,1.72-1,2.52-2.64,2.61q-8.65.46-17.29,1c-2.35.14-3.53-1.08-3.7-3.27-.41-5-.72-9.95-1-14.93-.11-1.79.55-3.18,2.46-3.37C1064.72,528.46,1071.52,527.9,1079,527.24Z"/><path class="cls-9" d="M644.7,1051.16c1.13,7.45,2.17,14,3.12,20.66.21,1.51-.23,3-2,3.17-5.88.71-11.77,1.33-17.65,2a5.79,5.79,0,0,1-1.61-.45,21.4,21.4,0,0,1-.88-3.42c-.56-5.27-1-10.56-1.53-15.83-.24-2.41.48-3.79,3.21-4C632.92,1052.69,638.45,1051.91,644.7,1051.16Z"/><path class="cls-9" d="M553.3,1055.33c-.2,7.32-.4,13.72-.52,20.11,0,2.29-1,3.59-3.36,3.44-5.61-.33-11.23-.65-16.83-1.09-1.63-.12-2.45-1.22-2.28-2.94q.86-8.86,1.68-17.73c.17-1.83,1-3,2.92-2.94C541,1054.5,547,1054.93,553.3,1055.33Z"/><path class="cls-9" d="M601,71.72l21.82,1.35c0,1.63.07,2.67,0,3.69-.4,5.45-.81,10.9-1.27,16.34-.26,3.16-1.14,3.94-4.07,3.74-4.35-.28-8.7-.62-13.06-.87-3.25-.19-5-1.07-4.35-5.33.7-4.44.48-9,.67-13.56C600.74,75.55,600.83,74,601,71.72Z"/><path class="cls-9" d="M75.6,622.83a19.82,19.82,0,0,1-1-3.54c-.42-4.83-.83-9.67-1-14.51-.18-3.81.17-4.07,3.8-4.28,5.15-.3,10.31-.68,15.47-.87,4-.15,4.18.11,4.46,4.15.32,4.52.75,9.05.9,13.58.09,2.89-.69,3.67-3.48,3.92C88.45,621.84,82.23,622.3,75.6,622.83Z"/><path class="cls-9" d="M97.93,645.54c2.5-.37,3.75.53,4.12,3.16.68,4.78,1.68,9.51,2.49,14.27.34,2-.33,3.23-2.54,3.64-5.82,1.07-11.6,2.31-17.4,3.48a2.6,2.6,0,0,1-3.44-2.24c-1-5.52-1.9-11.06-2.83-16.59-.34-2,.73-2.93,2.49-3.25,2.14-.38,4.31-.67,6.47-1C90.83,646.53,94.38,646,97.93,645.54Z"/><path class="cls-9" d="M197,905.93l16.8-14.57c3.66,1.56,5.36,4.72,7.72,7.11s4.6,5.08,7.28,8.07l-16.62,15.79C208.73,920.22,200,910.8,197,905.93Z"/><path class="cls-9" d="M1075.88,646.18l-23-3.22c.72-6.35,1.35-12.19,2.06-18,.25-2,1.5-3,3.58-2.79,6.51.64,13,1.26,19.82,1.91A100.15,100.15,0,0,1,1075.88,646.18Z"/><path class="cls-9" d="M941.19,924.1l-15.68,15.69-16.45-17L923.8,907.9C930.2,912.74,935.34,918.27,941.19,924.1Z"/><path class="cls-9" d="M243.9,227.81l-15,15.05L213,228c1.59-3.66,10.68-13.09,15.56-16.17Z"/></g></g></svg>