<svg xmlns="http://www.w3.org/2000/svg" viewBox="0 0 57.42 57.42"><defs><style>.cls-1{fill:#fff;}.cls-2{fill:#16593c;}</style></defs><title>Asset 4</title><g id="Layer_2" data-name="Layer 2"><g id="Layer_1-2" data-name="Layer 1"><path class="cls-1" d="M57.42,28.71A28.71,28.71,0,1,1,28.71,0,28.72,28.72,0,0,1,57.42,28.71Z"/><path class="cls-2" d="M44.84,19.41l-7.06-7.06a1,1,0,0,0-1.48,0L26.16,22.5a1,1,0,0,0-.31.74,1.05,1.05,0,0,0,.31.74l2.37,2.37-2,1.95L24.2,25.92a1.06,1.06,0,0,0-1.48,0L12.59,36.07a1,1,0,0,0-.32.74,1.07,1.07,0,0,0,.32.75l7.05,7a1,1,0,0,0,.74.3,1,1,0,0,0,.74-.3L31.26,34.46a1.1,1.1,0,0,0,.31-.74,1.08,1.08,0,0,0-.31-.74l-2.37-2.37,1.94-2L33.21,31a1,1,0,0,0,1.49,0L44.84,20.88a1,1,0,0,0,.3-.72A1,1,0,0,0,44.84,19.41ZM29,33.72l-8.66,8.67L14.8,36.81l8.66-8.66,1.64,1.64L22.49,32.4a.52.52,0,0,0-.16.37.57.57,0,0,0,.16.38l1.56,1.56a.53.53,0,0,0,.37.15.57.57,0,0,0,.38-.15l2.6-2.63ZM34,28.8l-1.63-1.63,2.61-2.61a.53.53,0,0,0,0-.75l-1.56-1.55a.51.51,0,0,0-.74,0L30,24.88l-1.63-1.64L37,14.57l5.58,5.59Z"/></g></g></svg>