<svg xmlns="http://www.w3.org/2000/svg" viewBox="0 0 122.75 122.93"><defs><style>.cls-1{fill:#fff;}</style></defs><title>Asset 1</title><g id="Layer_2" data-name="Layer 2"><g id="Layer_1-2" data-name="Layer 1"><path class="cls-1" d="M61.18,122.93A61.47,61.47,0,1,1,61.82,0c34.47.19,61,27.08,60.92,61.79C122.69,96.3,95.85,123,61.18,122.93ZM59.63,49.6c-10.94-.28-19.84-7.35-30.4-16.68-.23,10.4-3,19.56.06,25.92,4,8.25,3.88,20.42,16.1,24.41L26.91,89.1c27.85,16.74,61.18,1.25,68.37-30.65,1.34-5.92,4.59-11.41,6.92-17.11a5.57,5.57,0,0,0,.13-1.57L99,39.36l1.33-4c-5.39-1.2-10.16-3-15-3.13-5.26-.16-11.63-.39-15.57,2.29C65.45,37.41,63.41,43.63,59.63,49.6Z"/></g></g></svg>